<svg xmlns="http://www.w3.org/2000/svg" version="1.1" viewBox="0 0 120 120"><path d="M35.741 27.792 22 41.66v37.68l13.741 13.868c9.876 9.966 14.307 13.787 15.75 13.58 1.979-.284 2.009-.985 2.009-46.288s-.03-46.004-2.009-46.288c-1.443-.207-5.874 3.614-15.75 13.58m.461.541L23 41.666v37.668l13.202 13.333C43.464 100 50.214 106 51.202 106 52.906 106 53 103.627 53 60.5S52.906 15 51.202 15c-.988 0-7.738 6-15 13.333M80.75 19.08c-2.769 1.613-2.083 2.885 2.7 5.001C92.116 27.914 105 48.743 105 58.919c0 1.42-.657 5.507-1.461 9.081-3.453 15.36-7.504 21.868-16.246 26.1-4.832 2.339-5.02 2.781-2.501 5.892 1.673 2.066 2.088 2.131 6.25.985 8.291-2.284 10.812-3.916 14.303-9.258 8.58-13.13 10.985-34.891 5.335-48.288-3.62-8.585-13.078-19.938-19.126-22.96-5.314-2.655-8.033-3.005-10.804-1.391m.5.582c-2.201.889-1.351 2.08 2.616 3.668 2.424.97 5.424 3.527 8.045 6.858 2.298 2.922 4.721 5.987 5.384 6.812C101.629 42.397 106 53.383 106 58.881c0 3.585-2.516 14.488-4.836 20.955-2.245 6.255-7.571 12.265-13.15 14.837-4.438 2.046-4.54 2.225-2.706 4.734 1.164 1.592 1.796 1.656 5.75.581 5.145-1.399 9.018-3.064 10.442-4.488 2.582-2.582 6.427-9.478 7.806-14 4.502-14.76 4.629-27.979.365-38.09-6.248-14.815-20.677-26.872-28.421-23.748m-9 13.461c-.687.703-1.25 2.687-1.25 4.409 0 2.512.735 3.612 3.706 5.55C80.401 46.798 82.5 51.22 82.5 59.5s-2.099 12.702-7.794 16.418C71.532 77.988 71 78.867 71 82.045c0 10.639 12.361 6.19 18.184-6.545 1.922-4.204 2.284-6.672 2.276-15.5-.012-12.018-2.078-18.299-7.861-23.904-3.636-3.524-9.345-5.019-11.349-2.973m.5.456c-.412.415-.733 2.142-.711 3.838.029 2.355.788 3.556 3.212 5.083 11.534 7.267 11.514 26.802-.035 34-2.839 1.77-3.18 2.46-2.962 6 .243 3.947.296 3.998 4.055 3.881 4.792-.15 8.678-3.677 11.843-10.749 1.925-4.299 2.297-6.835 2.297-15.632 0-11.737-2.082-18.358-7.365-23.42-2.764-2.648-8.911-4.433-10.334-3.001m-14.083 9.088c-1.368 1.367-.6 5.267 1.299 6.597 6.61 4.63 6.577 17.866-.057 22.512-3.115 2.182-2.228 6.63 1.404 7.047 2.146.246 3.582-.492 6.05-3.109 7.461-7.911 7.494-22.482.068-30.356-2.962-3.14-7.057-4.398-8.764-2.691M59 45.465c0 1.384.82 2.903 1.87 3.465C63.451 50.312 66 56.06 66 60.5s-2.549 10.188-5.13 11.57c-1.05.562-1.87 2.081-1.87 3.465 0 3.589 4.375 3.345 7.912-.441 6.703-7.175 6.703-22.013 0-29.188C63.375 42.12 59 41.876 59 45.465m-51.925 3.82C3.315 54.264 3 55.167 3 60.952c0 5.887.253 6.572 4.137 11.211 3.727 4.452 4.494 4.911 7.75 4.639L18.5 76.5v-32l-3.675-.306c-3.408-.284-3.972.087-7.75 5.091m.51.599C4.383 54.247 4 55.429 4 60.966c0 5.642.325 6.593 3.62 10.616 2.982 3.638 4.217 4.418 7 4.418H18V45h-3.415c-2.931 0-3.923.692-7 4.884" fill="#fcec3c" fill-rule="evenodd"/><path d="M36.202 28.333 23 41.666v37.668l13.202 13.333C43.464 100 50.214 106 51.202 106 52.906 106 53 103.627 53 60.5S52.906 15 51.202 15c-.988 0-7.738 6-15 13.333m45.048-8.671c-2.201.889-1.351 2.08 2.616 3.668 2.424.97 5.424 3.527 8.045 6.858 2.298 2.922 4.721 5.987 5.384 6.812C101.629 42.397 106 53.383 106 58.881c0 3.585-2.516 14.488-4.836 20.955-2.245 6.255-7.571 12.265-13.15 14.837-4.438 2.046-4.54 2.225-2.706 4.734 1.164 1.592 1.796 1.656 5.75.581 5.145-1.399 9.018-3.064 10.442-4.488 2.582-2.582 6.427-9.478 7.806-14 4.502-14.76 4.629-27.979.365-38.09-6.248-14.815-20.677-26.872-28.421-23.748m-8.5 13.917c-.412.415-.733 2.142-.711 3.838.029 2.355.788 3.556 3.212 5.083 11.534 7.267 11.514 26.802-.035 34-2.839 1.77-3.18 2.46-2.962 6 .243 3.947.296 3.998 4.055 3.881 4.792-.15 8.678-3.677 11.843-10.749 1.925-4.299 2.297-6.835 2.297-15.632 0-11.737-2.082-18.358-7.365-23.42-2.764-2.648-8.911-4.433-10.334-3.001M59 45.465c0 1.384.82 2.903 1.87 3.465C63.451 50.312 66 56.06 66 60.5s-2.549 10.188-5.13 11.57c-1.05.562-1.87 2.081-1.87 3.465 0 3.589 4.375 3.345 7.912-.441 6.703-7.175 6.703-22.013 0-29.188C63.375 42.12 59 41.876 59 45.465M7.585 49.884C4.383 54.247 4 55.429 4 60.966c0 5.642.325 6.593 3.62 10.616 2.982 3.638 4.217 4.418 7 4.418H18V45h-3.415c-2.931 0-3.923.692-7 4.884" fill="#fcec3c" fill-rule="evenodd"/></svg>