<svg xmlns="http://www.w3.org/2000/svg" width="120" height="120" viewBox="0 0 120 120" version="1.1"><path d="M 35.741 27.792 L 22 41.660 22 60.500 L 22 79.340 35.741 93.208 C 45.617 103.174, 50.048 106.995, 51.491 106.788 C 53.470 106.504, 53.500 105.803, 53.500 60.500 C 53.500 15.197, 53.470 14.496, 51.491 14.212 C 50.048 14.005, 45.617 17.826, 35.741 27.792 M 36.202 28.333 L 23 41.666 23 60.500 L 23 79.334 36.202 92.667 C 43.464 100, 50.214 106, 51.202 106 C 52.906 106, 53 103.627, 53 60.500 C 53 17.373, 52.906 15, 51.202 15 C 50.214 15, 43.464 21, 36.202 28.333 M 80.750 19.080 C 77.981 20.693, 78.667 21.965, 83.450 24.081 C 92.116 27.914, 105 48.743, 105 58.919 C 105 60.339, 104.343 64.426, 103.539 68 C 100.086 83.360, 96.035 89.868, 87.293 94.100 C 82.461 96.439, 82.273 96.881, 84.792 99.992 C 86.465 102.058, 86.880 102.123, 91.042 100.977 C 99.333 98.693, 101.854 97.061, 105.345 91.719 C 113.925 78.589, 116.330 56.828, 110.680 43.431 C 107.060 34.846, 97.602 23.493, 91.554 20.471 C 86.240 17.816, 83.521 17.466, 80.750 19.080 M 81.250 19.662 C 79.049 20.551, 79.899 21.742, 83.866 23.330 C 86.290 24.300, 89.290 26.857, 91.911 30.188 C 94.209 33.110, 96.632 36.175, 97.295 37 C 101.629 42.397, 106 53.383, 106 58.881 C 106 62.466, 103.484 73.369, 101.164 79.836 C 98.919 86.091, 93.593 92.101, 88.014 94.673 C 83.576 96.719, 83.474 96.898, 85.308 99.407 C 86.472 100.999, 87.104 101.063, 91.058 99.988 C 96.203 98.589, 100.076 96.924, 101.500 95.500 C 104.082 92.918, 107.927 86.022, 109.306 81.500 C 113.808 66.740, 113.935 53.521, 109.671 43.410 C 103.423 28.595, 88.994 16.538, 81.250 19.662 M 72.250 33.123 C 71.563 33.826, 71 35.810, 71 37.532 C 71 40.044, 71.735 41.144, 74.706 43.082 C 80.401 46.798, 82.500 51.220, 82.500 59.500 C 82.500 67.780, 80.401 72.202, 74.706 75.918 C 71.532 77.988, 71 78.867, 71 82.045 C 71 92.684, 83.361 88.235, 89.184 75.500 C 91.106 71.296, 91.468 68.828, 91.460 60 C 91.448 47.982, 89.382 41.701, 83.599 36.096 C 79.963 32.572, 74.254 31.077, 72.250 33.123 M 72.750 33.579 C 72.338 33.994, 72.017 35.721, 72.039 37.417 C 72.068 39.772, 72.827 40.973, 75.251 42.500 C 86.785 49.767, 86.765 69.302, 75.216 76.500 C 72.377 78.270, 72.036 78.960, 72.254 82.500 C 72.497 86.447, 72.550 86.498, 76.309 86.381 C 81.101 86.231, 84.987 82.704, 88.152 75.632 C 90.077 71.333, 90.449 68.797, 90.449 60 C 90.449 48.263, 88.367 41.642, 83.084 36.580 C 80.320 33.932, 74.173 32.147, 72.750 33.579 M 58.667 42.667 C 57.299 44.034, 58.067 47.934, 59.966 49.264 C 66.576 53.894, 66.543 67.130, 59.909 71.776 C 56.794 73.958, 57.681 78.406, 61.313 78.823 C 63.459 79.069, 64.895 78.331, 67.363 75.714 C 74.824 67.803, 74.857 53.232, 67.431 45.358 C 64.469 42.218, 60.374 40.960, 58.667 42.667 M 59 45.465 C 59 46.849, 59.820 48.368, 60.870 48.930 C 63.451 50.312, 66 56.060, 66 60.500 C 66 64.940, 63.451 70.688, 60.870 72.070 C 59.820 72.632, 59 74.151, 59 75.535 C 59 79.124, 63.375 78.880, 66.912 75.094 C 73.615 67.919, 73.615 53.081, 66.912 45.906 C 63.375 42.120, 59 41.876, 59 45.465 M 7.075 49.285 C 3.315 54.264, 3 55.167, 3 60.952 C 3 66.839, 3.253 67.524, 7.137 72.163 C 10.864 76.615, 11.631 77.074, 14.887 76.802 L 18.500 76.500 18.500 60.500 L 18.500 44.500 14.825 44.194 C 11.417 43.910, 10.853 44.281, 7.075 49.285 M 7.585 49.884 C 4.383 54.247, 4 55.429, 4 60.966 C 4 66.608, 4.325 67.559, 7.620 71.582 C 10.602 75.220, 11.837 76, 14.620 76 L 18 76 18 60.500 L 18 45 14.585 45 C 11.654 45, 10.662 45.692, 7.585 49.884" stroke="none" fill="#fcec3c" fill-rule="evenodd"/><path d="M 36.202 28.333 L 23 41.666 23 60.500 L 23 79.334 36.202 92.667 C 43.464 100, 50.214 106, 51.202 106 C 52.906 106, 53 103.627, 53 60.500 C 53 17.373, 52.906 15, 51.202 15 C 50.214 15, 43.464 21, 36.202 28.333 M 81.250 19.662 C 79.049 20.551, 79.899 21.742, 83.866 23.330 C 86.290 24.300, 89.290 26.857, 91.911 30.188 C 94.209 33.110, 96.632 36.175, 97.295 37 C 101.629 42.397, 106 53.383, 106 58.881 C 106 62.466, 103.484 73.369, 101.164 79.836 C 98.919 86.091, 93.593 92.101, 88.014 94.673 C 83.576 96.719, 83.474 96.898, 85.308 99.407 C 86.472 100.999, 87.104 101.063, 91.058 99.988 C 96.203 98.589, 100.076 96.924, 101.500 95.500 C 104.082 92.918, 107.927 86.022, 109.306 81.500 C 113.808 66.740, 113.935 53.521, 109.671 43.410 C 103.423 28.595, 88.994 16.538, 81.250 19.662 M 72.750 33.579 C 72.338 33.994, 72.017 35.721, 72.039 37.417 C 72.068 39.772, 72.827 40.973, 75.251 42.500 C 86.785 49.767, 86.765 69.302, 75.216 76.500 C 72.377 78.270, 72.036 78.960, 72.254 82.500 C 72.497 86.447, 72.550 86.498, 76.309 86.381 C 81.101 86.231, 84.987 82.704, 88.152 75.632 C 90.077 71.333, 90.449 68.797, 90.449 60 C 90.449 48.263, 88.367 41.642, 83.084 36.580 C 80.320 33.932, 74.173 32.147, 72.750 33.579 M 59 45.465 C 59 46.849, 59.820 48.368, 60.870 48.930 C 63.451 50.312, 66 56.060, 66 60.500 C 66 64.940, 63.451 70.688, 60.870 72.070 C 59.820 72.632, 59 74.151, 59 75.535 C 59 79.124, 63.375 78.880, 66.912 75.094 C 73.615 67.919, 73.615 53.081, 66.912 45.906 C 63.375 42.120, 59 41.876, 59 45.465 M 7.585 49.884 C 4.383 54.247, 4 55.429, 4 60.966 C 4 66.608, 4.325 67.559, 7.620 71.582 C 10.602 75.220, 11.837 76, 14.620 76 L 18 76 18 60.500 L 18 45 14.585 45 C 11.654 45, 10.662 45.692, 7.585 49.884" stroke="none" fill="#fcec3c" fill-rule="evenodd"/></svg>