<svg xmlns="http://www.w3.org/2000/svg" xml:space="preserve" viewBox="0 0 1000 1000"><rect width="100%" height="100%" fill="#fff"/><g><rect width="45" height="30" x="-22.5" y="-15" rx="1.5" ry="1.5" style="stroke:none;stroke-width:1;stroke-dasharray:none;stroke-linecap:butt;stroke-dashoffset:0;stroke-linejoin:miter;stroke-miterlimit:4;is-custom-font:none;font-file-url:none;fill:#37547a;fill-rule:nonzero;opacity:1" transform="rotate(90 -99 362) scale(3.4003)"/><path d="M0 75q14 0 14 17 0 16-14 16Z" style="stroke:none;stroke-width:1;stroke-dasharray:none;stroke-linecap:butt;stroke-dashoffset:0;stroke-linejoin:miter;stroke-miterlimit:4;is-custom-font:none;font-file-url:none;fill:#98b0ca;fill-rule:nonzero;opacity:1" transform="rotate(180 106 386) scale(3.4003)"/><rect width="25" height="4" x="-12.5" y="-2" rx=".2" ry=".2" style="stroke:#46648c;stroke-width:1;stroke-dasharray:none;stroke-linecap:butt;stroke-dashoffset:0;stroke-linejoin:miter;stroke-miterlimit:4;is-custom-font:none;font-file-url:none;fill:#46648c;fill-rule:nonzero;opacity:1" transform="rotate(90 -46 282) scale(3.4003)"/><path d="M19 65h4l5 4v1H14v-1Z" style="stroke:none;stroke-width:1;stroke-dasharray:none;stroke-linecap:butt;stroke-dashoffset:0;stroke-linejoin:miter;stroke-miterlimit:4;is-custom-font:none;font-file-url:none;fill:#46648c;fill-rule:nonzero;opacity:1" transform="translate(165 150) scale(3.4003)"/><rect width="25" height="2" x="-12.5" y="-1" rx=".1" ry=".1" style="stroke:#98b0ca;stroke-width:1;stroke-dasharray:none;stroke-linecap:butt;stroke-dashoffset:0;stroke-linejoin:miter;stroke-miterlimit:4;is-custom-font:none;font-file-url:none;fill:#98b0ca;fill-rule:nonzero;opacity:1" transform="rotate(90 -3 240) scale(3.4003)"/><circle r="7.5" style="stroke:none;stroke-width:1;stroke-dasharray:none;stroke-linecap:butt;stroke-dashoffset:0;stroke-linejoin:miter;stroke-miterlimit:4;is-custom-font:none;font-file-url:none;fill:#a478fc;fill-rule:nonzero;opacity:1" transform="translate(236 175) scale(3.4003)"/><rect width="45" height="30" x="-22.5" y="-15" rx="1.5" ry="1.5" style="stroke:none;stroke-width:1;stroke-dasharray:none;stroke-linecap:butt;stroke-dashoffset:0;stroke-linejoin:miter;stroke-miterlimit:4;is-custom-font:none;font-file-url:none;fill:#37547a;fill-rule:nonzero;opacity:1" transform="rotate(90 139 600) scale(3.4003)"/><path d="M184 75q14 0 14 17 0 16-14 16Z" style="stroke:none;stroke-width:1;stroke-dasharray:none;stroke-linecap:butt;stroke-dashoffset:0;stroke-linejoin:miter;stroke-miterlimit:4;is-custom-font:none;font-file-url:none;fill:#98b0ca;fill-rule:nonzero;opacity:1" transform="translate(165 150) scale(3.4003)"/><rect width="25" height="4" x="-12.5" y="-2" rx=".2" ry=".2" style="stroke:#46648c;stroke-width:1;stroke-dasharray:none;stroke-linecap:butt;stroke-dashoffset:0;stroke-linejoin:miter;stroke-miterlimit:4;is-custom-font:none;font-file-url:none;fill:#46648c;fill-rule:nonzero;opacity:1" transform="rotate(90 219 548) scale(3.4003)"/><path d="M175 65h4l5 4v1h-14v-1Z" style="stroke:none;stroke-width:1;stroke-dasharray:none;stroke-linecap:butt;stroke-dashoffset:0;stroke-linejoin:miter;stroke-miterlimit:4;is-custom-font:none;font-file-url:none;fill:#46648c;fill-rule:nonzero;opacity:1" transform="translate(165 150) scale(3.4003)"/><rect width="25" height="2" x="-12.5" y="-1" rx=".1" ry=".1" style="stroke:#98b0ca;stroke-width:1;stroke-dasharray:none;stroke-linecap:butt;stroke-dashoffset:0;stroke-linejoin:miter;stroke-miterlimit:4;is-custom-font:none;font-file-url:none;fill:#98b0ca;fill-rule:nonzero;opacity:1" transform="rotate(90 262 505) scale(3.4003)"/><circle r="7.5" style="stroke:none;stroke-width:1;stroke-dasharray:none;stroke-linecap:butt;stroke-dashoffset:0;stroke-linejoin:miter;stroke-miterlimit:4;is-custom-font:none;font-file-url:none;fill:#a478fc;fill-rule:nonzero;opacity:1" transform="translate(767 175) scale(3.4003)"/><rect width="116.7" height="70" x="-58.4" y="-35" rx="31.5" ry="31.5" style="stroke:none;stroke-width:1;stroke-dasharray:none;stroke-linecap:butt;stroke-dashoffset:0;stroke-linejoin:miter;stroke-miterlimit:4;is-custom-font:none;font-file-url:none;fill:#71c9fc;fill-rule:nonzero;opacity:1" transform="translate(502 877) scale(3.4003)"/><rect width="60" height="20" x="-30" y="-10" rx="3" ry="3" style="stroke:none;stroke-width:1;stroke-dasharray:none;stroke-linecap:butt;stroke-dashoffset:0;stroke-linejoin:miter;stroke-miterlimit:4;is-custom-font:none;font-file-url:none;fill:#37547a;fill-rule:nonzero;opacity:1" transform="translate(502 728) scale(3.4003)"/><circle r="75" style="stroke:none;stroke-width:1;stroke-dasharray:none;stroke-linecap:butt;stroke-dashoffset:0;stroke-linejoin:miter;stroke-miterlimit:4;is-custom-font:none;font-file-url:none;fill:#71c9fc;fill-rule:nonzero;opacity:1" transform="translate(502 473) scale(3.4003)"/><rect width="129.4" height="82.3" x="-64.7" y="-41.1" rx="37" ry="37" style="stroke:none;stroke-width:1;stroke-dasharray:none;stroke-linecap:butt;stroke-dashoffset:0;stroke-linejoin:miter;stroke-miterlimit:4;is-custom-font:none;font-file-url:none;fill:#fff;fill-rule:nonzero;opacity:1" transform="translate(502 464) scale(3.4003)"/><rect width="108" height="68.6" x="-54" y="-34.3" rx="30.9" ry="30.9" style="stroke:none;stroke-width:1;stroke-dasharray:none;stroke-linecap:butt;stroke-dashoffset:0;stroke-linejoin:miter;stroke-miterlimit:4;is-custom-font:none;font-file-url:none;fill:#162334;fill-rule:nonzero;opacity:1" transform="translate(502 464) scale(3.4003)"/><circle r="19.4" style="stroke:none;stroke-width:1;stroke-dasharray:none;stroke-linecap:butt;stroke-dashoffset:0;stroke-linejoin:miter;stroke-miterlimit:4;is-custom-font:none;font-file-url:none;fill:#a478fc;fill-rule:nonzero;opacity:1" transform="translate(415 464) scale(3.4003)"/><circle r="19.4" style="stroke:none;stroke-width:1;stroke-dasharray:none;stroke-linecap:butt;stroke-dashoffset:0;stroke-linejoin:miter;stroke-miterlimit:4;is-custom-font:none;font-file-url:none;fill:#a478fc;fill-rule:nonzero;opacity:1" transform="translate(591 464) scale(3.4003)"/><rect width="96" height="53.2" x="-48" y="-26.6" rx="23.9" ry="23.9" style="stroke:#162334;stroke-width:1;stroke-dasharray:none;stroke-linecap:butt;stroke-dashoffset:0;stroke-linejoin:miter;stroke-miterlimit:4;is-custom-font:none;font-file-url:none;fill:#162334;fill-rule:nonzero;opacity:1" transform="translate(503 875) scale(3.4003)"/><path stroke-linecap="round" d="m68 215 7-15M81 222l-7-22M81 222l7-14M101 208H87M114 219l-7-24M113 219l13-22M131 214l-5-17M148 214h-18M69 214H51M100 209l7-15" style="stroke:#a478fc;stroke-width:3;stroke-dasharray:none;stroke-linecap:butt;stroke-dashoffset:0;stroke-linejoin:miter;stroke-miterlimit:10;is-custom-font:none;font-file-url:none;fill:none;fill-rule:nonzero;opacity:1" transform="translate(165 150) scale(3.4003)"/></g></svg>