<svg xmlns="http://www.w3.org/2000/svg" xmlns:xlink="http://www.w3.org/1999/xlink" version="1.1" width="1000" height="1000" viewBox="0 0 1000 1000" xml:space="preserve">
<desc>Created with Fabric.js 3.5.0</desc>
<defs>
</defs>
<rect x="0" y="0" width="100%" height="100%" fill="#ffffff"/>
<g transform="matrix(3.4003 0 0 3.4003 499.999 571.2337)" id="36476">
<g style="" vector-effect="non-scaling-stroke">
		<g transform="matrix(0 1 -1 0 -69.5 -32.5)">
<rect style="stroke: none; stroke-width: 1; stroke-dasharray: none; stroke-linecap: butt; stroke-dashoffset: 0; stroke-linejoin: miter; stroke-miterlimit: 4; is-custom-font: none; font-file-url: none; fill: rgb(55,84,122); fill-rule: nonzero; opacity: 1;" x="-22.5" y="-15" rx="1.5" ry="1.5" width="45" height="30"/>
</g>
		<g transform="matrix(-1 0 0 -1 -91.5 -32.5)">
<path style="stroke: none; stroke-width: 1; stroke-dasharray: none; stroke-linecap: butt; stroke-dashoffset: 0; stroke-linejoin: miter; stroke-miterlimit: 4; is-custom-font: none; font-file-url: none; fill: rgb(152,176,202); fill-rule: nonzero; opacity: 1;" transform=" translate(-7, -91.5)" d="M 0 75.25 Q 14 75.25 14 91.5 Q 14 107.75 0 107.75 Z" stroke-linecap="round"/>
</g>
		<g transform="matrix(0 1 -1 0 -77.5 -71.5)">
<rect style="stroke: rgb(70,100,140); stroke-width: 1; stroke-dasharray: none; stroke-linecap: butt; stroke-dashoffset: 0; stroke-linejoin: miter; stroke-miterlimit: 4; is-custom-font: none; font-file-url: none; fill: rgb(70,100,140); fill-rule: nonzero; opacity: 1;" x="-12.5" y="-2" rx="0.2" ry="0.2" width="25" height="4"/>
</g>
		<g transform="matrix(1 0 0 1 -77.5 -56.5)">
<path style="stroke: none; stroke-width: 1; stroke-dasharray: none; stroke-linecap: butt; stroke-dashoffset: 0; stroke-linejoin: miter; stroke-miterlimit: 4; is-custom-font: none; font-file-url: none; fill: rgb(70,100,140); fill-rule: nonzero; opacity: 1;" transform=" translate(-21, -67.5)" d="M 19 65 L 23 65 L 28 69 L 28 70 L 14 70 L 14 69 Z" stroke-linecap="round"/>
</g>
		<g transform="matrix(0 1 -1 0 -77.5 -96.5)">
<rect style="stroke: rgb(152,176,202); stroke-width: 1; stroke-dasharray: none; stroke-linecap: butt; stroke-dashoffset: 0; stroke-linejoin: miter; stroke-miterlimit: 4; is-custom-font: none; font-file-url: none; fill: rgb(152,176,202); fill-rule: nonzero; opacity: 1;" x="-12.5" y="-1" rx="0.1" ry="0.1" width="25" height="2"/>
</g>
		<g transform="matrix(1 0 0 1 -77.5 -116.5)">
<ellipse style="stroke: none; stroke-width: 1; stroke-dasharray: none; stroke-linecap: butt; stroke-dashoffset: 0; stroke-linejoin: miter; stroke-miterlimit: 4; is-custom-font: none; font-file-url: none; fill: rgb(164,120,252); fill-rule: nonzero; opacity: 1;" cx="0" cy="0" rx="7.5" ry="7.5"/>
</g>
		<g transform="matrix(0 1 -1 0 70.5 -32.5)">
<rect style="stroke: none; stroke-width: 1; stroke-dasharray: none; stroke-linecap: butt; stroke-dashoffset: 0; stroke-linejoin: miter; stroke-miterlimit: 4; is-custom-font: none; font-file-url: none; fill: rgb(55,84,122); fill-rule: nonzero; opacity: 1;" x="-22.5" y="-15" rx="1.5" ry="1.5" width="45" height="30"/>
</g>
		<g transform="matrix(1 0 0 1 92.5 -32.5)">
<path style="stroke: none; stroke-width: 1; stroke-dasharray: none; stroke-linecap: butt; stroke-dashoffset: 0; stroke-linejoin: miter; stroke-miterlimit: 4; is-custom-font: none; font-file-url: none; fill: rgb(152,176,202); fill-rule: nonzero; opacity: 1;" transform=" translate(-191, -91.5)" d="M 184 75.25 Q 198 75.25 198 91.5 Q 198 107.75 184 107.75 Z" stroke-linecap="round"/>
</g>
		<g transform="matrix(0 1 -1 0 78.5 -71.5)">
<rect style="stroke: rgb(70,100,140); stroke-width: 1; stroke-dasharray: none; stroke-linecap: butt; stroke-dashoffset: 0; stroke-linejoin: miter; stroke-miterlimit: 4; is-custom-font: none; font-file-url: none; fill: rgb(70,100,140); fill-rule: nonzero; opacity: 1;" x="-12.5" y="-2" rx="0.2" ry="0.2" width="25" height="4"/>
</g>
		<g transform="matrix(1 0 0 1 78.5 -56.5)">
<path style="stroke: none; stroke-width: 1; stroke-dasharray: none; stroke-linecap: butt; stroke-dashoffset: 0; stroke-linejoin: miter; stroke-miterlimit: 4; is-custom-font: none; font-file-url: none; fill: rgb(70,100,140); fill-rule: nonzero; opacity: 1;" transform=" translate(-177, -67.5)" d="M 175 65 L 179 65 L 184 69 L 184 70 L 170 70 L 170 69 Z" stroke-linecap="round"/>
</g>
		<g transform="matrix(0 1 -1 0 78.5 -96.5)">
<rect style="stroke: rgb(152,176,202); stroke-width: 1; stroke-dasharray: none; stroke-linecap: butt; stroke-dashoffset: 0; stroke-linejoin: miter; stroke-miterlimit: 4; is-custom-font: none; font-file-url: none; fill: rgb(152,176,202); fill-rule: nonzero; opacity: 1;" x="-12.5" y="-1" rx="0.1" ry="0.1" width="25" height="2"/>
</g>
		<g transform="matrix(1 0 0 1 78.5 -116.5)">
<ellipse style="stroke: none; stroke-width: 1; stroke-dasharray: none; stroke-linecap: butt; stroke-dashoffset: 0; stroke-linejoin: miter; stroke-miterlimit: 4; is-custom-font: none; font-file-url: none; fill: rgb(164,120,252); fill-rule: nonzero; opacity: 1;" cx="0" cy="0" rx="7.5" ry="7.5"/>
</g>
		<g transform="matrix(1 0 0 1 0.5 90)">
<rect style="stroke: none; stroke-width: 1; stroke-dasharray: none; stroke-linecap: butt; stroke-dashoffset: 0; stroke-linejoin: miter; stroke-miterlimit: 4; is-custom-font: none; font-file-url: none; fill: rgb(113,201,252); fill-rule: nonzero; opacity: 1;" x="-58.36" y="-35" rx="31.5" ry="31.5" width="116.72" height="70"/>
</g>
		<g transform="matrix(1 0 0 1 0.5 46)">
<rect style="stroke: none; stroke-width: 1; stroke-dasharray: none; stroke-linecap: butt; stroke-dashoffset: 0; stroke-linejoin: miter; stroke-miterlimit: 4; is-custom-font: none; font-file-url: none; fill: rgb(55,84,122); fill-rule: nonzero; opacity: 1;" x="-30" y="-10" rx="3" ry="3" width="60" height="20"/>
</g>
		<g transform="matrix(1 0 0 1 0.5 -29)">
<ellipse style="stroke: none; stroke-width: 1; stroke-dasharray: none; stroke-linecap: butt; stroke-dashoffset: 0; stroke-linejoin: miter; stroke-miterlimit: 4; is-custom-font: none; font-file-url: none; fill: rgb(113,201,252); fill-rule: nonzero; opacity: 1;" cx="0" cy="0" rx="75" ry="75"/>
</g>
		<g transform="matrix(1 0 0 1 0.5 -31.495)">
<rect style="stroke: none; stroke-width: 1; stroke-dasharray: none; stroke-linecap: butt; stroke-dashoffset: 0; stroke-linejoin: miter; stroke-miterlimit: 4; is-custom-font: none; font-file-url: none; fill: rgb(255,255,255); fill-rule: nonzero; opacity: 1;" x="-64.72" y="-41.125" rx="37.01" ry="37.01" width="129.44" height="82.25"/>
</g>
		<g transform="matrix(1 0 0 1 0.505 -31.5)">
<rect style="stroke: none; stroke-width: 1; stroke-dasharray: none; stroke-linecap: butt; stroke-dashoffset: 0; stroke-linejoin: miter; stroke-miterlimit: 4; is-custom-font: none; font-file-url: none; fill: rgb(22,35,52); fill-rule: nonzero; opacity: 1;" x="-53.995" y="-34.31" rx="30.88" ry="30.88" width="107.99" height="68.62"/>
</g>
		<g transform="matrix(1 0 0 1 -25.12 -31.5)">
<ellipse style="stroke: none; stroke-width: 1; stroke-dasharray: none; stroke-linecap: butt; stroke-dashoffset: 0; stroke-linejoin: miter; stroke-miterlimit: 4; is-custom-font: none; font-file-url: none; fill: rgb(164,120,252); fill-rule: nonzero; opacity: 1;" cx="0" cy="0" rx="19.375" ry="19.375"/>
</g>
		<g transform="matrix(1 0 0 1 26.88 -31.5)">
<ellipse style="stroke: none; stroke-width: 1; stroke-dasharray: none; stroke-linecap: butt; stroke-dashoffset: 0; stroke-linejoin: miter; stroke-miterlimit: 4; is-custom-font: none; font-file-url: none; fill: rgb(164,120,252); fill-rule: nonzero; opacity: 1;" cx="0" cy="0" rx="19.375" ry="19.375"/>
</g>
		<g transform="matrix(1 0 0 1 0.865 89.405)">
<rect style="stroke: rgb(22,35,52); stroke-width: 1; stroke-dasharray: none; stroke-linecap: butt; stroke-dashoffset: 0; stroke-linejoin: miter; stroke-miterlimit: 4; is-custom-font: none; font-file-url: none; fill: rgb(22,35,52); fill-rule: nonzero; opacity: 1;" x="-47.995" y="-26.595" rx="23.94" ry="23.94" width="95.99" height="53.19"/>
</g>
		<g transform="matrix(1 0 0 1 -27.16 83.585)">
<path style="stroke: rgb(164,120,252); stroke-width: 3; stroke-dasharray: none; stroke-linecap: butt; stroke-dashoffset: 0; stroke-linejoin: miter; stroke-miterlimit: 10; is-custom-font: none; font-file-url: none; fill: none; fill-rule: nonzero; opacity: 1;" transform=" translate(-71.34, -207.585)" d="M 67.98 214.98 Q 67.98 214.98 74.7 200.19" stroke-linecap="round"/>
</g>
		<g transform="matrix(1 0 0 1 -20.77 87.28)">
<path style="stroke: rgb(164,120,252); stroke-width: 3; stroke-dasharray: none; stroke-linecap: butt; stroke-dashoffset: 0; stroke-linejoin: miter; stroke-miterlimit: 10; is-custom-font: none; font-file-url: none; fill: none; fill-rule: nonzero; opacity: 1;" transform=" translate(-77.73, -211.28)" d="M 81.43 222.37 Q 81.43 222.37 74.03 200.19" stroke-linecap="round"/>
</g>
		<g transform="matrix(1 0 0 1 -13.71 90.975)">
<path style="stroke: rgb(164,120,252); stroke-width: 3; stroke-dasharray: none; stroke-linecap: butt; stroke-dashoffset: 0; stroke-linejoin: miter; stroke-miterlimit: 10; is-custom-font: none; font-file-url: none; fill: none; fill-rule: nonzero; opacity: 1;" transform=" translate(-84.79, -214.975)" d="M 81.43 222.37 Q 81.43 222.37 88.15 207.58" stroke-linecap="round"/>
</g>
		<g transform="matrix(1 0 0 1 -4.295 84.32)">
<path style="stroke: rgb(164,120,252); stroke-width: 3; stroke-dasharray: none; stroke-linecap: butt; stroke-dashoffset: 0; stroke-linejoin: miter; stroke-miterlimit: 10; is-custom-font: none; font-file-url: none; fill: none; fill-rule: nonzero; opacity: 1;" transform=" translate(-94.205, -208.32)" d="M 100.93 208.32 Q 100.93 208.32 87.48 208.32" stroke-linecap="round"/>
</g>
		<g transform="matrix(1 0 0 1 11.845 82.91)">
<path style="stroke: rgb(164,120,252); stroke-width: 3; stroke-dasharray: none; stroke-linecap: butt; stroke-dashoffset: 0; stroke-linejoin: miter; stroke-miterlimit: 10; is-custom-font: none; font-file-url: none; fill: none; fill-rule: nonzero; opacity: 1;" transform=" translate(-110.345, -206.91)" d="M 113.71 218.81 Q 113.71 218.81 106.98 195.01" stroke-linecap="round"/>
</g>
		<g transform="matrix(1 0 0 1 21.265 84.05)">
<path style="stroke: rgb(164,120,252); stroke-width: 3; stroke-dasharray: none; stroke-linecap: butt; stroke-dashoffset: 0; stroke-linejoin: miter; stroke-miterlimit: 10; is-custom-font: none; font-file-url: none; fill: none; fill-rule: nonzero; opacity: 1;" transform=" translate(-119.765, -208.05)" d="M 113.04 219.14 Q 113.04 219.14 126.49 196.96" stroke-linecap="round"/>
</g>
		<g transform="matrix(1 0 0 1 29.67 81.695)">
<path style="stroke: rgb(164,120,252); stroke-width: 3; stroke-dasharray: none; stroke-linecap: butt; stroke-dashoffset: 0; stroke-linejoin: miter; stroke-miterlimit: 10; is-custom-font: none; font-file-url: none; fill: none; fill-rule: nonzero; opacity: 1;" transform=" translate(-128.17, -205.695)" d="M 130.52 214.43 Q 130.52 214.43 125.82 196.96" stroke-linecap="round"/>
</g>
		<g transform="matrix(1 0 0 1 40.065 90)">
<path style="stroke: rgb(164,120,252); stroke-width: 3; stroke-dasharray: none; stroke-linecap: butt; stroke-dashoffset: 0; stroke-linejoin: miter; stroke-miterlimit: 10; is-custom-font: none; font-file-url: none; fill: none; fill-rule: nonzero; opacity: 1;" transform=" translate(-138.565, -214)" d="M 147.5 214 Q 147.5 214 129.63 214" stroke-linecap="round"/>
</g>
		<g transform="matrix(1 0 0 1 -38.565 90)">
<path style="stroke: rgb(164,120,252); stroke-width: 3; stroke-dasharray: none; stroke-linecap: butt; stroke-dashoffset: 0; stroke-linejoin: miter; stroke-miterlimit: 10; is-custom-font: none; font-file-url: none; fill: none; fill-rule: nonzero; opacity: 1;" transform=" translate(-59.935, -214)" d="M 68.87 214 Q 68.87 214 51 214" stroke-linecap="round"/>
</g>
		<g transform="matrix(1 0 0 1 5.12 77.395)">
<path style="stroke: rgb(164,120,252); stroke-width: 3; stroke-dasharray: none; stroke-linecap: butt; stroke-dashoffset: 0; stroke-linejoin: miter; stroke-miterlimit: 10; is-custom-font: none; font-file-url: none; fill: none; fill-rule: nonzero; opacity: 1;" transform=" translate(-103.62, -201.395)" d="M 100.26 208.79 Q 100.26 208.79 106.98 194" stroke-linecap="round"/>
</g>
</g>
</g>
</svg>