<svg xmlns="http://www.w3.org/2000/svg" width="637" height="637" viewBox="0 0 637 637" version="1.1"><path d="M 477.500 112.690 C 473.100 113.466, 467.475 114.496, 465 114.977 L 460.500 115.853 465 115.510 C 467.475 115.321, 473.550 114.470, 478.500 113.619 C 489.210 111.777, 514.100 111.504, 520.807 113.155 C 523.388 113.791, 526.388 114.916, 527.473 115.655 C 528.557 116.395, 529.895 117, 530.445 117 C 532.782 117, 526.421 113.665, 521.673 112.401 C 514.932 110.606, 488.321 110.780, 477.500 112.690 M 533.500 118.568 C 534.600 119.381, 538.249 122.051, 541.609 124.502 C 548.759 129.717, 562 142.399, 562 144.032 C 562 145.581, 569.128 156.205, 569.750 155.583 C 570.025 155.308, 568.619 152.626, 566.625 149.622 C 564.631 146.619, 563 143.870, 563 143.514 C 563 140.787, 548.223 127.161, 537.700 120.183 C 532.897 116.998, 529.729 115.780, 533.500 118.568 M 336 134.973 C 332.425 135.351, 328.400 136.021, 327.055 136.460 C 325.710 136.899, 314.235 138.959, 301.555 141.038 C 288.875 143.117, 279.702 144.859, 281.172 144.909 C 282.641 144.959, 289.166 144.107, 295.672 143.016 C 302.177 141.924, 309.975 140.768, 313 140.446 C 316.025 140.124, 321.950 138.992, 326.167 137.930 C 330.383 136.869, 335.869 136, 338.358 136 C 340.846 136, 343.160 135.550, 343.500 135 C 343.840 134.450, 343.754 134.064, 343.309 134.142 C 342.864 134.220, 339.575 134.594, 336 134.973 M 156.500 165.065 C 153.750 165.513, 149.025 166.364, 146 166.955 C 142.975 167.546, 137.350 168.453, 133.500 168.970 C 120.218 170.754, 100.348 175.217, 99.016 176.715 C 98.732 177.034, 99.625 176.987, 101 176.610 C 107.031 174.958, 127.983 170.782, 134.435 169.946 C 138.321 169.442, 143.975 168.551, 147 167.965 C 150.025 167.379, 154.862 166.548, 157.749 166.118 C 160.636 165.687, 163.299 165.035, 163.666 164.667 C 164.443 163.891, 163.319 163.953, 156.500 165.065 M 524.583 173.400 C 526.738 175.270, 528.725 176.576, 529 176.303 C 529.613 175.692, 522.950 170, 521.621 170 C 521.096 170, 522.429 171.530, 524.583 173.400 M 439 178.604 C 434.875 179.355, 426.100 180.891, 419.500 182.017 C 412.900 183.142, 403.819 184.724, 399.320 185.532 C 394.822 186.339, 389.984 187, 388.570 187 C 387.157 187, 386 187.459, 386 188.019 C 386 188.580, 387.012 188.826, 388.250 188.568 C 389.488 188.309, 394.775 187.378, 400 186.499 C 405.225 185.620, 414.450 184.009, 420.500 182.921 C 426.550 181.832, 436.225 180.100, 442 179.071 C 447.775 178.042, 451.150 177.209, 449.500 177.219 C 447.850 177.230, 443.125 177.853, 439 178.604 M 85.500 181.765 C 79.079 185.165, 68 195.025, 68 197.339 C 68 197.853, 70.844 195.359, 74.321 191.796 C 78.619 187.391, 82.983 184.146, 87.955 181.659 C 91.978 179.646, 94.646 178.013, 93.884 178.029 C 93.123 178.045, 89.350 179.726, 85.500 181.765 M 527.648 193.905 C 525.874 197.166, 522.484 200.787, 517.579 204.660 C 513.512 207.872, 510.343 210.662, 510.536 210.860 C 510.729 211.058, 514.238 208.483, 518.334 205.136 C 524.810 199.844, 532.033 190.699, 530.750 189.416 C 530.515 189.182, 529.119 191.202, 527.648 193.905 M 65.162 204.543 C 64.523 205.946, 64 211.325, 64 216.495 C 64 225.462, 64.177 226.234, 67.836 233.192 C 73.227 243.448, 75.329 244.529, 89.625 244.400 C 99.733 244.309, 104.921 243.581, 127.500 239.086 L 132.500 238.091 126.500 238.597 C 123.200 238.876, 116.006 240.027, 110.514 241.155 C 104.721 242.344, 96.113 243.267, 90.014 243.353 C 77.029 243.535, 74.205 242.206, 69.025 233.480 C 65.789 228.030, 65.472 226.783, 65.153 218.268 C 64.961 213.113, 65.296 207.590, 65.908 205.834 C 67.263 201.947, 66.750 201.058, 65.162 204.543 M 400 205.892 C 403.044 206.438, 403.476 206.871, 403.318 209.216 C 403.218 210.699, 402.389 213.486, 401.476 215.409 C 399.175 220.258, 366.108 254.276, 324.509 294.590 C 271.773 345.696, 205.290 412.326, 187.402 432 C 165.850 455.704, 165 456.740, 165 459.339 C 165 462.092, 170.833 468, 173.552 468 C 177.850 468, 188.322 460.421, 211.548 440.500 C 216.037 436.650, 223.688 430.125, 228.550 426 C 233.412 421.875, 239.440 416.655, 241.945 414.400 C 244.450 412.145, 249.826 407.769, 253.890 404.675 C 257.955 401.581, 263.675 396.983, 266.602 394.456 C 269.528 391.930, 273.628 388.724, 275.711 387.332 C 277.795 385.940, 280.850 383.561, 282.500 382.046 C 284.150 380.530, 287.525 377.927, 290 376.261 C 294.687 373.107, 298.619 369.286, 297.909 368.576 C 297.462 368.129, 293.570 371.249, 283.268 380.312 C 279.635 383.508, 275.375 386.789, 273.801 387.603 C 270.539 389.290, 248.026 407.073, 240.468 413.933 C 237.701 416.445, 231.661 421.650, 227.047 425.500 C 222.432 429.350, 214.764 435.875, 210.007 440 C 193.505 454.308, 183.942 461.785, 178.500 464.634 L 173.031 467.498 169.332 463.799 C 166.100 460.566, 165.770 459.810, 166.714 457.800 C 170.476 449.797, 245.899 372.744, 326.506 294.556 C 384.421 238.379, 406 215.145, 406 208.964 C 406 206.636, 403.071 204.956, 399.316 205.132 C 396.777 205.250, 396.845 205.325, 400 205.892 M 279 208.568 C 278.175 208.752, 267.375 210.762, 255 213.034 C 242.625 215.306, 232.050 217.628, 231.500 218.195 C 230.820 218.896, 231.139 219.034, 232.500 218.629 C 233.600 218.301, 245.300 215.999, 258.500 213.513 C 271.700 211.028, 283.175 208.823, 284 208.613 C 285.847 208.144, 281.086 208.101, 279 208.568 M 501.730 215.282 C 498.557 217.602, 490.232 223.778, 483.230 229.006 C 476.229 234.234, 469.223 239.332, 467.663 240.336 C 466.103 241.339, 465.048 242.382, 465.320 242.653 C 465.826 243.159, 471.196 239.566, 482.228 231.340 C 485.677 228.767, 490.420 225.276, 492.767 223.581 C 497.435 220.211, 508.251 212.057, 508.917 211.407 C 509.146 211.183, 508.921 211.014, 508.417 211.032 C 507.913 211.050, 504.904 212.962, 501.730 215.282 M 565.112 224.250 C 555.798 240.944, 539.630 255.915, 508.400 276.763 C 502.358 280.796, 497.495 284.829, 498.030 285.362 C 498.453 285.783, 502.016 283.304, 514.500 273.908 C 516.700 272.252, 521.650 268.837, 525.500 266.319 C 541.108 256.110, 553.483 243.910, 565.188 227.195 C 570.082 220.205, 570.646 219, 569.020 219 C 568.481 219, 566.722 221.363, 565.112 224.250 M 344 225.857 C 340.425 227.314, 335.049 229.742, 332.054 231.253 C 329.058 232.764, 326.133 234.008, 325.554 234.018 C 324.974 234.028, 322.520 235.378, 320.100 237.018 C 314.273 240.966, 315.195 240.780, 324.634 236.102 C 334.848 231.039, 340.299 228.642, 346.750 226.375 C 349.637 225.361, 352 224.186, 352 223.765 C 352 222.693, 351.340 222.866, 344 225.857 M 309.861 241.967 C 306.754 244.555, 308.441 244.585, 311.727 242 C 313.126 240.900, 313.809 240, 313.246 240 C 312.682 240, 311.159 240.885, 309.861 241.967 M 460.861 244.967 C 459.562 246.048, 458.993 246.948, 459.595 246.967 C 460.197 246.985, 461.505 246.100, 462.500 245 C 464.816 242.441, 463.915 242.423, 460.861 244.967 M 285.500 251.994 C 273.676 257.659, 260.409 263.804, 255.220 266.019 C 252.315 267.258, 250.097 268.430, 250.290 268.623 C 250.687 269.020, 261.102 264.656, 278 257.013 C 284.325 254.153, 290.288 251.577, 291.250 251.289 C 292.942 250.784, 293.770 248.938, 292.250 249.060 C 291.837 249.093, 288.800 250.414, 285.500 251.994 M 444.989 256.859 C 437.794 262.672, 429.387 270.720, 434 267.379 C 438.658 264.006, 453.551 251.609, 453.833 250.871 C 454.418 249.342, 453.646 249.865, 444.989 256.859 M 420.543 275.066 C 417.838 277.302, 414.724 279.612, 413.625 280.201 C 411.532 281.321, 410.034 282.441, 407.088 285.091 C 404.625 287.305, 376.004 308.139, 364.625 316 C 355.157 322.541, 340.667 335, 342.528 335 C 343.078 335, 346.448 332.364, 350.018 329.143 C 353.587 325.921, 360.556 320.531, 365.504 317.163 C 370.452 313.796, 376.975 309.108, 380 306.745 C 383.025 304.382, 392.250 297.524, 400.500 291.505 C 408.750 285.486, 415.725 280.299, 416 279.979 C 416.275 279.659, 418.637 277.881, 421.250 276.029 C 423.863 274.177, 426 272.287, 426 271.830 C 426 270.589, 425.860 270.673, 420.543 275.066 M 234 275 C 232.075 276.054, 230.950 276.916, 231.500 276.916 C 232.050 276.916, 234.075 276.054, 236 275 C 237.925 273.946, 239.050 273.084, 238.500 273.084 C 237.950 273.084, 235.925 273.946, 234 275 M 220.250 280.745 C 218.463 281.635, 217 282.740, 217 283.202 C 217 283.663, 218.800 283.122, 221 282 C 223.200 280.878, 225 279.743, 225 279.480 C 225 278.688, 223.676 279.040, 220.250 280.745 M 213 283.933 C 212.175 284.381, 208.350 286.106, 204.500 287.765 C 188.671 294.587, 187.023 295.356, 187.406 295.739 C 187.877 296.211, 195.949 293.044, 204.769 288.926 C 208.217 287.317, 211.649 286, 212.396 286 C 213.144 286, 214.315 285.325, 215 284.500 C 216.342 282.883, 215.416 282.620, 213 283.933 M 467.486 307.593 C 455.394 316.720, 442.593 326.282, 439.041 328.843 C 435.488 331.405, 430.763 335.098, 428.541 337.051 C 426.318 339.004, 421.125 343.047, 417 346.036 C 412.875 349.026, 409.013 351.928, 408.417 352.486 C 407.821 353.044, 402.073 357.325, 395.643 362 C 389.213 366.675, 379.350 374.255, 373.726 378.845 C 368.102 383.435, 362.825 387.446, 362 387.758 C 361.175 388.070, 358.415 390.165, 355.867 392.413 C 353.319 394.661, 348.707 398.207, 345.617 400.292 C 342.528 402.378, 340 404.530, 340 405.075 C 340 405.619, 342.403 404.250, 345.341 402.032 C 348.278 399.815, 351.050 398, 351.500 398 C 351.950 398, 354.609 395.951, 357.409 393.446 C 363.075 388.377, 383.823 372, 384.578 372 C 384.843 372, 387.969 369.532, 391.525 366.516 C 395.081 363.500, 399.903 359.824, 402.242 358.347 C 406.517 355.649, 422.472 343.696, 435.500 333.433 C 443.256 327.323, 444.614 326.292, 467.500 309.130 C 483.406 297.202, 490.968 291.118, 489.986 291.041 C 489.704 291.018, 479.579 298.467, 467.486 307.593 M 176 300 C 174.075 301.054, 172.950 301.916, 173.500 301.916 C 174.050 301.916, 176.075 301.054, 178 300 C 179.925 298.946, 181.050 298.084, 180.500 298.084 C 179.950 298.084, 177.925 298.946, 176 300 M 163.250 305.220 C 162.012 305.817, 161 306.698, 161 307.178 C 161 307.659, 162.350 307.353, 164 306.500 C 168.522 304.161, 167.844 303.005, 163.250 305.220 M 144 314.039 C 140.975 315.644, 137.813 316.966, 136.974 316.978 C 136.135 316.990, 130.082 319.817, 123.524 323.261 C 114.468 328.015, 111.138 330.312, 109.680 332.808 C 106.983 337.426, 108.153 337.794, 111.083 333.249 C 113.019 330.246, 115.788 328.362, 125 323.780 C 131.325 320.634, 137.091 318.046, 137.813 318.030 C 139.792 317.985, 150 312.798, 150 311.838 C 150 310.782, 150.454 310.616, 144 314.039 M 321.500 349.504 C 305.326 362.237, 300.797 366.130, 301.428 366.761 C 301.720 367.053, 303.925 365.539, 306.328 363.396 C 308.730 361.253, 315.940 355.491, 322.348 350.592 C 328.757 345.692, 334 341.305, 334 340.842 C 334 340.379, 333.887 340.013, 333.750 340.029 C 333.613 340.044, 328.100 344.308, 321.500 349.504 M 115.116 384.191 C 115.052 385.671, 115.450 387.160, 116 387.500 C 116.550 387.840, 117 389.261, 117 390.658 C 117 392.055, 117.657 394.616, 118.460 396.349 C 119.262 398.082, 120.084 401.525, 120.285 404 L 120.651 408.500 120.825 403.364 C 120.925 400.421, 120.362 397.006, 119.506 395.364 C 118.685 393.789, 118.010 391.353, 118.006 389.950 C 118.003 388.547, 117.594 386.972, 117.097 386.450 C 116.600 385.928, 115.978 384.600, 115.713 383.500 C 115.342 381.958, 115.205 382.117, 115.116 384.191 M 336.893 406.651 C 336.127 407.586, 332.086 410.889, 327.914 413.990 C 323.742 417.091, 316.317 422.850, 311.414 426.787 C 286.097 447.121, 279.798 452.061, 272 457.703 C 267.325 461.085, 262.150 465.007, 260.500 466.418 C 258.850 467.829, 252.550 472.850, 246.500 477.576 C 240.450 482.301, 231.225 489.673, 226 493.957 C 211.152 506.132, 207.941 508.405, 200.476 512.024 C 193.763 515.279, 193.048 515.408, 181.500 515.453 C 169.690 515.499, 169.400 515.446, 163.175 512.071 C 155.392 507.851, 152.565 504.497, 146.387 492.156 C 140.741 480.877, 141.128 481.539, 140.530 482.137 C 140.271 482.396, 142.161 486.858, 144.730 492.054 C 149.883 502.474, 156.618 510.164, 164.075 514.141 C 168.078 516.275, 169.739 516.498, 181.500 516.484 C 194.466 516.467, 194.519 516.458, 201.610 512.831 C 208.810 509.150, 216.079 503.988, 228.129 494 C 235.172 488.162, 250.779 475.919, 270.500 460.763 C 284.419 450.066, 299.526 438.146, 313 427.230 C 318.225 422.997, 325.936 416.978, 330.136 413.855 C 334.336 410.732, 338.094 407.657, 338.486 407.022 C 339.664 405.116, 338.392 404.821, 336.893 406.651" stroke="none" fill="#cbdce6" fill-rule="evenodd"/><path d="M 477.500 113.673 C 473.100 114.440, 464.775 115.711, 459 116.498 C 453.225 117.284, 444 118.818, 438.500 119.907 C 433 120.996, 423.550 122.586, 417.500 123.440 C 411.450 124.295, 403.125 125.485, 399 126.086 C 394.875 126.686, 388.749 127.523, 385.386 127.946 C 382.024 128.368, 378.655 129.095, 377.901 129.561 C 377.146 130.028, 375.060 130.283, 373.264 130.128 C 371.469 129.973, 370 130.231, 370 130.700 C 370 131.169, 368.200 131.381, 366 131.171 C 363.391 130.923, 362 131.198, 362 131.962 C 362 132.680, 361.224 132.888, 360 132.500 C 358.900 132.151, 358 132.303, 358 132.837 C 358 133.393, 356.304 133.582, 354.048 133.280 C 351.874 132.988, 349.286 133.102, 348.298 133.532 C 347.309 133.963, 345.971 134.233, 345.325 134.131 C 344.679 134.030, 343.865 134.409, 343.516 134.973 C 343.167 135.538, 340.846 136, 338.358 136 C 335.869 136, 330.383 136.869, 326.167 137.930 C 321.950 138.992, 316.044 140.122, 313.043 140.442 C 306.131 141.179, 285.078 144.488, 267.500 147.602 C 263.100 148.381, 256.125 149.428, 252 149.928 C 247.875 150.428, 241.350 151.522, 237.500 152.357 C 233.650 153.193, 223.525 154.829, 215 155.992 C 206.475 157.155, 198.825 158.379, 198 158.711 C 197.175 159.044, 195.904 159.217, 195.176 159.097 C 194.448 158.977, 193.175 159.440, 192.348 160.126 C 191.480 160.847, 188.763 161.264, 185.922 161.113 C 182.988 160.957, 181 161.275, 181 161.901 C 181 162.533, 179.808 162.712, 178 162.350 C 176.237 161.997, 175 162.170, 175 162.769 C 175 163.330, 173.988 163.817, 172.750 163.852 C 168.996 163.959, 161.529 165.152, 147 167.965 C 143.975 168.551, 138.350 169.440, 134.500 169.942 C 130.650 170.443, 122.775 171.810, 117 172.978 C 93.638 177.706, 83.962 181.963, 74.419 191.714 C 66.627 199.676, 64.622 205.487, 65.144 218.598 C 65.467 226.719, 65.824 228.088, 69.025 233.479 C 74.162 242.134, 77.069 243.529, 89.653 243.378 C 95.376 243.310, 104.755 242.312, 111.153 241.091 C 117.394 239.900, 127.675 238.072, 134 237.027 C 140.325 235.983, 147.975 234.629, 151 234.019 C 154.025 233.409, 162.575 231.757, 170 230.348 C 177.425 228.939, 183.950 227.514, 184.499 227.180 C 185.049 226.847, 186.737 226.704, 188.249 226.862 C 189.762 227.021, 191 226.709, 191 226.169 C 191 225.629, 191.900 225.423, 193 225.710 C 194.100 225.998, 195 225.809, 195 225.290 C 195 224.771, 196.350 224.545, 198 224.787 C 199.888 225.064, 201 224.789, 201 224.046 C 201 223.320, 201.771 223.110, 203 223.500 C 204.127 223.858, 205 223.680, 205 223.092 C 205 222.477, 206.180 222.286, 207.879 222.626 C 209.464 222.943, 211.051 222.727, 211.411 222.144 C 211.770 221.563, 212.725 221.341, 213.532 221.651 C 214.339 221.960, 215.787 221.872, 216.750 221.453 C 217.713 221.035, 219.288 220.790, 220.250 220.909 C 221.213 221.028, 222 220.599, 222 219.956 C 222 219.286, 222.696 219.053, 223.627 219.410 C 224.521 219.754, 225.852 219.538, 226.583 218.931 C 227.314 218.324, 228.402 218.130, 229 218.500 C 229.598 218.870, 230.630 218.726, 231.294 218.180 C 231.957 217.634, 242.625 215.328, 255 213.055 C 267.375 210.782, 284.250 207.600, 292.500 205.985 C 308.546 202.842, 338.905 197.426, 350.669 195.608 C 354.612 194.999, 358.143 194.194, 358.517 193.819 C 358.890 193.444, 359.827 193.380, 360.598 193.676 C 361.369 193.972, 362 193.794, 362 193.280 C 362 192.767, 363.350 192.545, 365 192.787 C 366.660 193.030, 368 192.771, 368 192.207 C 368 191.646, 368.900 191.423, 370 191.710 C 371.100 191.998, 372 191.809, 372 191.290 C 372 190.771, 373.350 190.545, 375 190.787 C 376.827 191.055, 378 190.784, 378 190.094 C 378 189.386, 378.936 189.197, 380.500 189.589 C 382.140 190.001, 383 189.798, 383 189.001 C 383 188.332, 383.674 188.045, 384.500 188.362 C 385.325 188.678, 386 188.501, 386 187.969 C 386 187.436, 387.157 187, 388.570 187 C 389.984 187, 394.822 186.342, 399.320 185.538 C 418.655 182.083, 431.523 179.909, 447 177.484 C 456.075 176.062, 466.742 174.221, 470.705 173.391 C 492.612 168.807, 519 166.408, 519 169 C 519 169.550, 519.745 170, 520.656 170 C 523.227 170, 529 174.878, 529 177.051 C 529 178.123, 529.337 179.003, 529.750 179.007 C 530.163 179.011, 530.622 181.502, 530.771 184.543 C 530.990 189.021, 530.542 190.926, 528.411 194.562 C 526.057 198.579, 512.416 210.986, 510.329 211.009 C 509.873 211.014, 506.694 213.151, 503.265 215.759 C 499.835 218.367, 495.110 221.887, 492.765 223.581 C 490.419 225.276, 485.677 228.767, 482.228 231.340 C 472.156 238.850, 466.083 243, 465.165 243 C 464.695 243, 463.495 243.900, 462.500 245 C 461.505 246.100, 460.193 247, 459.586 247 C 458.978 247, 457.908 247.917, 457.208 249.039 C 456.508 250.160, 455.538 250.832, 455.053 250.533 C 454.568 250.233, 454.020 250.390, 453.835 250.881 C 453.273 252.379, 433.588 267.984, 432.250 267.992 C 431.563 267.997, 431 268.441, 431 268.981 C 431 269.520, 429.875 270.244, 428.500 270.589 C 427.125 270.934, 426 271.542, 426 271.939 C 426 272.336, 423.863 274.177, 421.250 276.029 C 418.637 277.881, 416.275 279.659, 416 279.979 C 415.725 280.299, 408.750 285.486, 400.500 291.505 C 392.250 297.524, 383.025 304.382, 380 306.745 C 376.975 309.108, 370.452 313.796, 365.504 317.163 C 360.556 320.531, 353.587 325.921, 350.018 329.143 C 346.448 332.364, 343.007 335, 342.371 335 C 341.735 335, 340.930 335.739, 340.583 336.643 C 340.237 337.547, 339.666 338, 339.316 337.649 C 338.966 337.299, 338.046 337.917, 337.271 339.023 C 336.497 340.129, 335.444 340.774, 334.932 340.458 C 334.419 340.141, 334 340.287, 334 340.783 C 334 341.278, 328.757 345.692, 322.348 350.592 C 315.940 355.491, 308.802 361.188, 306.486 363.250 C 304.171 365.312, 301.764 367, 301.138 367 C 300.512 367, 300 367.525, 300 368.167 C 300 368.808, 299.715 369.049, 299.367 368.701 C 299.019 368.353, 297.860 369.179, 296.791 370.538 C 295.723 371.897, 292.745 374.422, 290.174 376.149 C 287.603 377.877, 284.150 380.530, 282.500 382.046 C 280.850 383.561, 277.795 385.940, 275.711 387.332 C 273.628 388.724, 269.528 391.930, 266.602 394.456 C 263.675 396.983, 257.955 401.581, 253.890 404.675 C 249.826 407.769, 244.450 412.145, 241.945 414.400 C 239.440 416.655, 233.412 421.875, 228.550 426 C 223.688 430.125, 216.037 436.650, 211.548 440.500 C 188.160 460.560, 177.853 468, 173.451 468 C 170.766 468, 165 462.021, 165 459.237 C 165 456.746, 165.935 455.610, 187.402 432 C 205.290 412.326, 271.773 345.696, 324.509 294.590 C 366.108 254.276, 399.175 220.258, 401.476 215.409 C 402.389 213.486, 403.218 210.694, 403.318 209.206 C 403.472 206.910, 403.060 206.450, 400.594 206.169 C 398.996 205.986, 396.071 206.499, 394.094 207.308 C 392.117 208.116, 386.675 210.009, 382 211.513 C 377.325 213.017, 372.375 214.715, 371 215.286 C 369.625 215.856, 368.163 216.250, 367.750 216.161 C 367.337 216.073, 367 216.477, 367 217.059 C 367 217.641, 366.550 217.840, 366 217.500 C 365.450 217.160, 365 217.385, 365 218 C 365 218.615, 364.550 218.840, 364 218.500 C 363.450 218.160, 363 218.385, 363 219 C 363 219.615, 362.520 219.821, 361.933 219.459 C 361.347 219.096, 360.236 219.632, 359.465 220.650 C 358.694 221.667, 358.049 222.130, 358.032 221.679 C 358.014 221.227, 357.267 221.590, 356.371 222.486 C 355.475 223.382, 354.125 223.878, 353.371 223.589 C 352.617 223.300, 352 223.393, 352 223.797 C 352 224.200, 349.637 225.361, 346.750 226.375 C 340.299 228.642, 334.848 231.039, 324.634 236.102 C 320.308 238.246, 316.206 240, 315.519 240 C 314.832 240, 313.197 240.833, 311.885 241.851 C 310.573 242.870, 308.375 243.967, 307 244.290 C 302.295 245.395, 297 247.489, 297 248.245 C 297 248.660, 296.100 249, 295 249 C 293.900 249, 293 249.398, 293 249.883 C 293 250.369, 292.212 251.002, 291.250 251.289 C 290.288 251.577, 284.325 254.153, 278 257.015 C 261.024 264.696, 245.848 271, 244.333 271 C 243.600 271, 243 271.340, 243 271.755 C 243 272.171, 241.537 273.026, 239.750 273.656 C 233.661 275.803, 229.502 277.515, 228 278.493 C 227.175 279.030, 226.275 279.497, 226 279.530 C 225.725 279.563, 223.643 280.563, 221.374 281.752 C 219.104 282.941, 217.031 283.698, 216.766 283.433 C 216.502 283.168, 215.716 283.638, 215.020 284.476 C 214.324 285.314, 213.144 286, 212.396 286 C 211.649 286, 208.217 287.334, 204.769 288.964 C 201.321 290.594, 194.397 293.496, 189.382 295.414 C 179.625 299.145, 170.810 302.992, 164.750 306.165 C 162.687 307.245, 161 307.804, 161 307.409 C 161 307.014, 160.176 307.436, 159.169 308.347 C 158.162 309.259, 157.037 309.703, 156.669 309.336 C 156.301 308.968, 156 309.178, 156 309.802 C 156 310.426, 155.325 310.678, 154.500 310.362 C 153.675 310.045, 153 310.270, 153 310.862 C 153 311.453, 152.325 311.678, 151.500 311.362 C 150.675 311.045, 150 311.211, 150 311.731 C 150 312.769, 139.914 317.982, 137.813 318.030 C 137.091 318.046, 131.327 320.634, 125.006 323.780 C 115.657 328.432, 113.013 330.245, 110.844 333.489 C 109.378 335.684, 108.370 337.790, 108.605 338.170 C 108.840 338.551, 108.575 339.144, 108.016 339.490 C 106.597 340.367, 106.742 348.342, 108.204 349.804 C 108.866 350.466, 109.299 352.627, 109.166 354.606 C 109.033 356.584, 109.480 358.874, 110.160 359.693 C 110.840 360.512, 111.297 362.664, 111.175 364.475 C 111.026 366.677, 111.466 367.965, 112.501 368.362 C 113.593 368.781, 113.863 369.699, 113.416 371.478 C 113.042 372.970, 113.210 374, 113.829 374 C 114.405 374, 114.870 374.787, 114.862 375.750 C 114.836 379.275, 116.104 385.504, 117.039 386.439 C 117.568 386.968, 118 388.479, 118 389.799 C 118 391.118, 118.635 393.616, 119.412 395.349 C 120.188 397.082, 121.040 401.579, 121.304 405.342 C 121.568 409.105, 122.283 412.683, 122.892 413.292 C 123.502 413.902, 124 415.570, 124 417 C 124 418.430, 124.389 420.028, 124.865 420.550 C 127.784 423.754, 133.953 446.130, 135.538 459.263 C 135.921 462.433, 136.589 465.246, 137.023 465.514 C 137.457 465.782, 137.576 466.904, 137.288 468.006 C 137 469.109, 137.322 470.683, 138.004 471.505 C 138.687 472.327, 138.910 473, 138.500 473 C 138.090 473, 138.256 473.604, 138.869 474.342 C 139.481 475.080, 139.697 475.969, 139.349 476.318 C 139 476.666, 139.268 477.618, 139.944 478.432 C 140.619 479.246, 140.906 480.344, 140.580 480.871 C 140.254 481.398, 140.328 481.980, 140.744 482.165 C 141.160 482.349, 143.687 486.845, 146.360 492.156 C 152.581 504.515, 155.403 507.857, 163.175 512.071 C 169.400 515.446, 169.690 515.499, 181.500 515.453 C 193.048 515.408, 193.763 515.279, 200.476 512.024 C 207.941 508.405, 211.152 506.132, 226 493.957 C 231.225 489.673, 240.450 482.301, 246.500 477.576 C 252.550 472.850, 258.850 467.829, 260.500 466.418 C 262.150 465.007, 267.325 461.085, 272 457.703 C 279.798 452.061, 286.097 447.121, 311.414 426.787 C 316.317 422.850, 323.742 417.091, 327.914 413.990 C 332.086 410.889, 336.113 407.602, 336.863 406.687 C 337.613 405.771, 338.578 405.239, 339.009 405.505 C 339.439 405.771, 340.026 405.375, 340.314 404.625 C 340.601 403.876, 343.911 401.214, 347.668 398.711 C 351.426 396.208, 355.822 392.774, 357.437 391.080 C 359.052 389.386, 360.852 387.993, 361.437 387.985 C 362.022 387.977, 367.327 384.039, 373.226 379.235 C 379.125 374.431, 389.212 366.675, 395.642 362 C 402.073 357.325, 407.821 353.044, 408.417 352.486 C 409.013 351.928, 412.875 349.026, 417 346.036 C 421.125 343.047, 426.318 339.004, 428.541 337.051 C 430.763 335.098, 435.488 331.405, 439.041 328.843 C 450.402 320.653, 489.442 291.189, 491.084 289.566 C 491.955 288.705, 493.144 288, 493.727 288 C 494.309 288, 495.056 287.296, 495.386 286.437 C 495.716 285.577, 496.439 285.153, 496.993 285.496 C 497.547 285.838, 498 285.734, 498 285.265 C 498 284.341, 506.321 277.738, 511.567 274.500 C 535.250 259.878, 554.452 242.098, 563.799 226.135 C 565.614 223.036, 567.797 219.967, 568.650 219.317 C 569.502 218.666, 569.904 217.653, 569.541 217.067 C 569.179 216.480, 569.304 216, 569.819 216 C 571.848 216, 573.200 206.681, 573.712 189.174 C 574.089 176.288, 573.914 170.514, 573.124 169.724 C 572.506 169.106, 572 167.369, 572 165.865 C 572 164.361, 571.475 161.863, 570.834 160.315 C 570.192 158.767, 569.630 157.266, 569.584 156.980 C 569.538 156.694, 567.813 153.918, 565.750 150.811 C 563.688 147.703, 562 144.870, 562 144.514 C 562 142.876, 556.347 136.773, 549.101 130.586 C 537.374 120.574, 528.550 115.166, 520.500 113.058 C 514.916 111.596, 487.132 111.994, 477.500 113.673" stroke="none" fill="#fbfbfb" fill-rule="evenodd"/></svg>