<svg xmlns="http://www.w3.org/2000/svg" version="1.1" viewBox="0 0 637 637"><path d="M477.5 112.69c-4.4.776-10.025 1.806-12.5 2.287l-4.5.876 4.5-.343c2.475-.189 8.55-1.04 13.5-1.891 10.71-1.842 35.6-2.115 42.307-.464 2.581.636 5.581 1.761 6.666 2.5 1.084.74 2.422 1.345 2.972 1.345 2.337 0-4.024-3.335-8.772-4.599-6.741-1.795-33.352-1.621-44.173.289m56 5.878c1.1.813 4.749 3.483 8.109 5.934 7.15 5.215 20.391 17.897 20.391 19.53 0 1.549 7.128 12.173 7.75 11.551.275-.275-1.131-2.957-3.125-5.961-1.994-3.003-3.625-5.752-3.625-6.108 0-2.727-14.777-16.353-25.3-23.331-4.803-3.185-7.971-4.403-4.2-1.615M336 134.973c-3.575.378-7.6 1.048-8.945 1.487-1.345.439-12.82 2.499-25.5 4.578s-21.853 3.821-20.383 3.871c1.469.05 7.994-.802 14.5-1.893 6.505-1.092 14.303-2.248 17.328-2.57 3.025-.322 8.95-1.454 13.167-2.516 4.216-1.061 9.702-1.93 12.191-1.93 2.488 0 4.802-.45 5.142-1 .34-.55.254-.936-.191-.858-.445.078-3.734.452-7.309.831m-179.5 30.092c-2.75.448-7.475 1.299-10.5 1.89-3.025.591-8.65 1.498-12.5 2.015-13.282 1.784-33.152 6.247-34.484 7.745-.284.319.609.272 1.984-.105 6.031-1.652 26.983-5.828 33.435-6.664 3.886-.504 9.54-1.395 12.565-1.981a304.111 304.111 0 0 1 10.749-1.847c2.887-.431 5.55-1.083 5.917-1.451.777-.776-.347-.714-7.166.398m368.083 8.335c2.155 1.87 4.142 3.176 4.417 2.903.613-.611-6.05-6.303-7.379-6.303-.525 0 .808 1.53 2.962 3.4M439 178.604c-4.125.751-12.9 2.287-19.5 3.413-6.6 1.125-15.681 2.707-20.18 3.515-4.498.807-9.336 1.468-10.75 1.468-1.413 0-2.57.459-2.57 1.019 0 .561 1.012.807 2.25.549 1.238-.259 6.525-1.19 11.75-2.069s14.45-2.49 20.5-3.578c6.05-1.089 15.725-2.821 21.5-3.85s9.15-1.862 7.5-1.852c-1.65.011-6.375.634-10.5 1.385m-353.5 3.161c-6.421 3.4-17.5 13.26-17.5 15.574 0 .514 2.844-1.98 6.321-5.543 4.298-4.405 8.662-7.65 13.634-10.137 4.023-2.013 6.691-3.646 5.929-3.63-.761.016-4.534 1.697-8.384 3.736m442.148 12.14c-1.774 3.261-5.164 6.882-10.069 10.755-4.067 3.212-7.236 6.002-7.043 6.2.193.198 3.702-2.377 7.798-5.724 6.476-5.292 13.699-14.437 12.416-15.72-.235-.234-1.631 1.786-3.102 4.489M65.162 204.543c-.639 1.403-1.162 6.782-1.162 11.952 0 8.967.177 9.739 3.836 16.697 5.391 10.256 7.493 11.337 21.789 11.208 10.108-.091 15.296-.819 37.875-5.314l5-.995-6 .506c-3.3.279-10.494 1.43-15.986 2.558-5.793 1.189-14.401 2.112-20.5 2.198-12.985.182-15.809-1.147-20.989-9.873-3.236-5.45-3.553-6.697-3.872-15.212-.192-5.155.143-10.678.755-12.434 1.355-3.887.842-4.776-.746-1.291M400 205.892c3.044.546 3.476.979 3.318 3.324-.1 1.483-.929 4.27-1.842 6.193-2.301 4.849-35.368 38.867-76.967 79.181C271.773 345.696 205.29 412.326 187.402 432 165.85 455.704 165 456.74 165 459.339c0 2.753 5.833 8.661 8.552 8.661 4.298 0 14.77-7.579 37.996-27.5 4.489-3.85 12.14-10.375 17.002-14.5 4.862-4.125 10.89-9.345 13.395-11.6 2.505-2.255 7.881-6.631 11.945-9.725 4.065-3.094 9.785-7.692 12.712-10.219 2.926-2.526 7.026-5.732 9.109-7.124 2.084-1.392 5.139-3.771 6.789-5.286 1.65-1.516 5.025-4.119 7.5-5.785 4.687-3.154 8.619-6.975 7.909-7.685-.447-.447-4.339 2.673-14.641 11.736-3.633 3.196-7.893 6.477-9.467 7.291-3.262 1.687-25.775 19.47-33.333 26.33-2.767 2.512-8.807 7.717-13.421 11.567a1421.14 1421.14 0 0 0-17.04 14.5c-16.502 14.308-26.065 21.785-31.507 24.634l-5.469 2.864-3.699-3.699c-3.232-3.233-3.562-3.989-2.618-5.999 3.762-8.003 79.185-85.056 159.792-163.244C384.421 238.379 406 215.145 406 208.964c0-2.328-2.929-4.008-6.684-3.832-2.539.118-2.471.193.684.76m-121 2.676c-.825.184-11.625 2.194-24 4.466-12.375 2.272-22.95 4.594-23.5 5.161-.68.701-.361.839 1 .434 1.1-.328 12.8-2.63 26-5.116 13.2-2.485 24.675-4.69 25.5-4.9 1.847-.469-2.914-.512-5-.045m222.73 6.714c-3.173 2.32-11.498 8.496-18.5 13.724-7.001 5.228-14.007 10.326-15.567 11.33-1.56 1.003-2.615 2.046-2.343 2.317.506.506 5.876-3.087 16.908-11.313 3.449-2.573 8.192-6.064 10.539-7.759 4.668-3.37 15.484-11.524 16.15-12.174.229-.224.004-.393-.5-.375-.504.018-3.513 1.93-6.687 4.25m63.382 8.968c-9.314 16.694-25.482 31.665-56.712 52.513-6.042 4.033-10.905 8.066-10.37 8.599.423.421 3.986-2.058 16.47-11.454 2.2-1.656 7.15-5.071 11-7.589 15.608-10.209 27.983-22.409 39.688-39.124 4.894-6.99 5.458-8.195 3.832-8.195-.539 0-2.298 2.363-3.908 5.25M344 225.857c-3.575 1.457-8.951 3.885-11.946 5.396-2.996 1.511-5.921 2.755-6.5 2.765-.58.01-3.034 1.36-5.454 3-5.827 3.948-4.905 3.762 4.534-.916 10.214-5.063 15.665-7.46 22.116-9.727 2.887-1.014 5.25-2.189 5.25-2.61 0-1.072-.66-.899-8 2.092m-34.139 16.11c-3.107 2.588-1.42 2.618 1.866.033 1.399-1.1 2.082-2 1.519-2-.564 0-2.087.885-3.385 1.967m151 3c-1.299 1.081-1.868 1.981-1.266 2 .602.018 1.91-.867 2.905-1.967 2.316-2.559 1.415-2.577-1.639-.033M285.5 251.994c-11.824 5.665-25.091 11.81-30.28 14.025-2.905 1.239-5.123 2.411-4.93 2.604.397.397 10.812-3.967 27.71-11.61 6.325-2.86 12.288-5.436 13.25-5.724 1.692-.505 2.52-2.351 1-2.229-.413.033-3.45 1.354-6.75 2.934m159.489 4.865c-7.195 5.813-15.602 13.861-10.989 10.52 4.658-3.373 19.551-15.77 19.833-16.508.585-1.529-.187-1.006-8.844 5.988m-24.446 18.207c-2.705 2.236-5.819 4.546-6.918 5.135-2.093 1.12-3.591 2.24-6.537 4.89-2.463 2.214-31.084 23.048-42.463 30.909-9.468 6.541-23.958 19-22.097 19 .55 0 3.92-2.636 7.49-5.857 3.569-3.222 10.538-8.612 15.486-11.98 4.948-3.367 11.471-8.055 14.496-10.418 3.025-2.363 12.25-9.221 20.5-15.24s15.225-11.206 15.5-11.526c.275-.32 2.637-2.098 5.25-3.95 2.613-1.852 4.75-3.742 4.75-4.199 0-1.241-.14-1.157-5.457 3.236M234 275c-1.925 1.054-3.05 1.916-2.5 1.916.55 0 2.575-.862 4.5-1.916 1.925-1.054 3.05-1.916 2.5-1.916-.55 0-2.575.862-4.5 1.916m-13.75 5.745c-1.787.89-3.25 1.995-3.25 2.457 0 .461 1.8-.08 4-1.202 2.2-1.122 4-2.257 4-2.52 0-.792-1.324-.44-4.75 1.265m-7.25 3.188c-.825.448-4.65 2.173-8.5 3.832-15.829 6.822-17.477 7.591-17.094 7.974.471.472 8.543-2.695 17.363-6.813 3.448-1.609 6.88-2.926 7.627-2.926.748 0 1.919-.675 2.604-1.5 1.342-1.617.416-1.88-2-.567m254.486 23.66c-12.092 9.127-24.893 18.689-28.445 21.25-3.553 2.562-8.278 6.255-10.5 8.208-2.223 1.953-7.416 5.996-11.541 8.985-4.125 2.99-7.987 5.892-8.583 6.45-.596.558-6.344 4.839-12.774 9.514-6.43 4.675-16.293 12.255-21.917 16.845-5.624 4.59-10.901 8.601-11.726 8.913-.825.312-3.585 2.407-6.133 4.655s-7.16 5.794-10.25 7.879c-3.089 2.086-5.617 4.238-5.617 4.783 0 .544 2.403-.825 5.341-3.043 2.937-2.217 5.709-4.032 6.159-4.032.45 0 3.109-2.049 5.909-4.554 5.666-5.069 26.414-21.446 27.169-21.446.265 0 3.391-2.468 6.947-5.484s8.378-6.692 10.717-8.169c4.275-2.698 20.23-14.651 33.258-24.914 7.756-6.11 9.114-7.141 32-24.303 15.906-11.928 23.468-18.012 22.486-18.089-.282-.023-10.407 7.426-22.5 16.552M176 300c-1.925 1.054-3.05 1.916-2.5 1.916.55 0 2.575-.862 4.5-1.916 1.925-1.054 3.05-1.916 2.5-1.916-.55 0-2.575.862-4.5 1.916m-12.75 5.22c-1.238.597-2.25 1.478-2.25 1.958 0 .481 1.35.175 3-.678 4.522-2.339 3.844-3.495-.75-1.28M144 314.039c-3.025 1.605-6.187 2.927-7.026 2.939-.839.012-6.892 2.839-13.45 6.283-9.056 4.754-12.386 7.051-13.844 9.547-2.697 4.618-1.527 4.986 1.403.441 1.936-3.003 4.705-4.887 13.917-9.469 6.325-3.146 12.091-5.734 12.813-5.75 1.979-.045 12.187-5.232 12.187-6.192 0-1.056.454-1.222-6 2.201m177.5 35.465c-16.174 12.733-20.703 16.626-20.072 17.257.292.292 2.497-1.222 4.9-3.365 2.402-2.143 9.612-7.905 16.02-12.804 6.409-4.9 11.652-9.287 11.652-9.75 0-.463-.113-.829-.25-.813-.137.015-5.65 4.279-12.25 9.475m-206.384 34.687c-.064 1.48.334 2.969.884 3.309.55.34 1 1.761 1 3.158s.657 3.958 1.46 5.691c.802 1.733 1.624 5.176 1.825 7.651l.366 4.5.174-5.136c.1-2.943-.463-6.358-1.319-8-.821-1.575-1.496-4.011-1.5-5.414-.003-1.403-.412-2.978-.909-3.5-.497-.522-1.119-1.85-1.384-2.95-.371-1.542-.508-1.383-.597.691m221.777 22.46c-.766.935-4.807 4.238-8.979 7.339-4.172 3.101-11.597 8.86-16.5 12.797-25.317 20.334-31.616 25.274-39.414 30.916-4.675 3.382-9.85 7.304-11.5 8.715-1.65 1.411-7.95 6.432-14 11.158-6.05 4.725-15.275 12.097-20.5 16.381-14.848 12.175-18.059 14.448-25.524 18.067-6.713 3.255-7.428 3.384-18.976 3.429-11.81.046-12.1-.007-18.325-3.382-7.783-4.22-10.61-7.574-16.788-19.915-5.646-11.279-5.259-10.617-5.857-10.019-.259.259 1.631 4.721 4.2 9.917 5.153 10.42 11.888 18.11 19.345 22.087 4.003 2.134 5.664 2.357 17.425 2.343 12.966-.017 13.019-.026 20.11-3.653 7.2-3.681 14.469-8.843 26.519-18.831 7.043-5.838 22.65-18.081 42.371-33.237A2182.748 2182.748 0 0 0 313 427.23c5.225-4.233 12.936-10.252 17.136-13.375 4.2-3.123 7.958-6.198 8.35-6.833 1.178-1.906-.094-2.201-1.593-.371" fill="#cbdce6" fill-rule="evenodd"/><path d="M477.5 113.673c-4.4.767-12.725 2.038-18.5 2.825-5.775.786-15 2.32-20.5 3.409s-14.95 2.679-21 3.533a5480.74 5480.74 0 0 0-18.5 2.646c-4.125.6-10.251 1.437-13.614 1.86-3.362.422-6.731 1.149-7.485 1.615-.755.467-2.841.722-4.637.567-1.795-.155-3.264.103-3.264.572s-1.8.681-4 .471c-2.609-.248-4 .027-4 .791 0 .718-.776.926-2 .538-1.1-.349-2-.197-2 .337 0 .556-1.696.745-3.952.443-2.174-.292-4.762-.178-5.75.252-.989.431-2.327.701-2.973.599-.646-.101-1.46.278-1.809.842-.349.565-2.67 1.027-5.158 1.027-2.489 0-7.975.869-12.191 1.93-4.217 1.062-10.123 2.192-13.124 2.512-6.912.737-27.965 4.046-45.543 7.16-4.4.779-11.375 1.826-15.5 2.326s-10.65 1.594-14.5 2.429c-3.85.836-13.975 2.472-22.5 3.635-8.525 1.163-16.175 2.387-17 2.719-.825.333-2.096.506-2.824.386-.728-.12-2.001.343-2.828 1.029-.868.721-3.585 1.138-6.426.987-2.934-.156-4.922.162-4.922.788 0 .632-1.192.811-3 .449-1.763-.353-3-.18-3 .419 0 .561-1.012 1.048-2.25 1.083-3.754.107-11.221 1.3-25.75 4.113-3.025.586-8.65 1.475-12.5 1.977-3.85.501-11.725 1.868-17.5 3.036-23.362 4.728-33.038 8.985-42.581 18.736-7.792 7.962-9.797 13.773-9.275 26.884.323 8.121.68 9.49 3.881 14.881 5.137 8.655 8.044 10.05 20.628 9.899 5.723-.068 15.102-1.066 21.5-2.287A1132.846 1132.846 0 0 1 134 237.027c6.325-1.044 13.975-2.398 17-3.008 3.025-.61 11.575-2.262 19-3.671 7.425-1.409 13.95-2.834 14.499-3.168.55-.333 2.238-.476 3.75-.318 1.513.159 2.751-.153 2.751-.693 0-.54.9-.746 2-.459 1.1.288 2 .099 2-.42s1.35-.745 3-.503c1.888.277 3 .002 3-.741 0-.726.771-.936 2-.546 1.127.358 2 .18 2-.408 0-.615 1.18-.806 2.879-.466 1.585.317 3.172.101 3.532-.482.359-.581 1.314-.803 2.121-.493.807.309 2.255.221 3.218-.198.963-.418 2.538-.663 3.5-.544.963.119 1.75-.31 1.75-.953 0-.67.696-.903 1.627-.546.894.344 2.225.128 2.956-.479.731-.607 1.819-.801 2.417-.431.598.37 1.63.226 2.294-.32.663-.546 11.331-2.852 23.706-5.125s29.25-5.455 37.5-7.07c16.046-3.143 46.405-8.559 58.169-10.377 3.943-.609 7.474-1.414 7.848-1.789.373-.375 1.31-.439 2.081-.143.771.296 1.402.118 1.402-.396 0-.513 1.35-.735 3-.493 1.66.243 3-.016 3-.58 0-.561.9-.784 2-.497 1.1.288 2 .099 2-.42s1.35-.745 3-.503c1.827.268 3-.003 3-.693 0-.708.936-.897 2.5-.505 1.64.412 2.5.209 2.5-.588 0-.669.674-.956 1.5-.639.825.316 1.5.139 1.5-.393 0-.533 1.157-.969 2.57-.969 1.414 0 6.252-.658 10.75-1.462 19.335-3.455 32.203-5.629 47.68-8.054 9.075-1.422 19.742-3.263 23.705-4.093C492.612 168.807 519 166.408 519 169c0 .55.745 1 1.656 1 2.571 0 8.344 4.878 8.344 7.051 0 1.072.337 1.952.75 1.956.413.004.872 2.495 1.021 5.536.219 4.478-.229 6.383-2.36 10.019-2.354 4.017-15.995 16.424-18.082 16.447-.456.005-3.635 2.142-7.064 4.75-3.43 2.608-8.155 6.128-10.5 7.822a1070.254 1070.254 0 0 0-10.537 7.759c-10.072 7.51-16.145 11.66-17.063 11.66-.47 0-1.67.9-2.665 2-.995 1.1-2.307 2-2.914 2-.608 0-1.678.917-2.378 2.039-.7 1.121-1.67 1.793-2.155 1.494-.485-.3-1.033-.143-1.218.348-.562 1.498-20.247 17.103-21.585 17.111-.687.005-1.25.449-1.25.989 0 .539-1.125 1.263-2.5 1.608-1.375.345-2.5.953-2.5 1.35 0 .397-2.137 2.238-4.75 4.09-2.613 1.852-4.975 3.63-5.25 3.95-.275.32-7.25 5.507-15.5 11.526s-17.475 12.877-20.5 15.24c-3.025 2.363-9.548 7.051-14.496 10.418-4.948 3.368-11.917 8.758-15.486 11.98-3.57 3.221-7.011 5.857-7.647 5.857-.636 0-1.441.739-1.788 1.643-.346.904-.917 1.357-1.267 1.006-.35-.35-1.27.268-2.045 1.374-.774 1.106-1.827 1.751-2.339 1.435-.513-.317-.932-.171-.932.325 0 .495-5.243 4.909-11.652 9.809-6.408 4.899-13.546 10.596-15.862 12.658-2.315 2.062-4.722 3.75-5.348 3.75-.626 0-1.138.525-1.138 1.167 0 .641-.285.882-.633.534-.348-.348-1.507.478-2.576 1.837-1.068 1.359-4.046 3.884-6.617 5.611-2.571 1.728-6.024 4.381-7.674 5.897-1.65 1.515-4.705 3.894-6.789 5.286-2.083 1.392-6.183 4.598-9.109 7.124-2.927 2.527-8.647 7.125-12.712 10.219-4.064 3.094-9.44 7.47-11.945 9.725-2.505 2.255-8.533 7.475-13.395 11.6a5073.016 5073.016 0 0 0-17.002 14.5c-23.388 20.06-33.695 27.5-38.097 27.5-2.685 0-8.451-5.979-8.451-8.763 0-2.491.935-3.627 22.402-27.237 17.888-19.674 84.371-86.304 137.107-137.41 41.599-40.314 74.666-74.332 76.967-79.181.913-1.923 1.742-4.715 1.842-6.203.154-2.296-.258-2.756-2.724-3.037-1.598-.183-4.523.33-6.5 1.139-1.977.808-7.419 2.701-12.094 4.205s-9.625 3.202-11 3.773c-1.375.57-2.837.964-3.25.875-.413-.088-.75.316-.75.898 0 .582-.45.781-1 .441s-1-.115-1 .5-.45.84-1 .5c-.55-.34-1-.115-1 .5s-.48.821-1.067.459c-.586-.363-1.697.173-2.468 1.191-.771 1.017-1.416 1.48-1.433 1.029-.018-.452-.765-.089-1.661.807s-2.246 1.392-3 1.103c-.754-.289-1.371-.196-1.371.208 0 .403-2.363 1.564-5.25 2.578-6.451 2.267-11.902 4.664-22.116 9.727-4.326 2.144-8.428 3.898-9.115 3.898-.687 0-2.322.833-3.634 1.851-1.312 1.019-3.51 2.116-4.885 2.439-4.705 1.105-10 3.199-10 3.955 0 .415-.9.755-2 .755s-2 .398-2 .883c0 .486-.788 1.119-1.75 1.406-.962.288-6.925 2.864-13.25 5.726C261.024 264.696 245.848 271 244.333 271c-.733 0-1.333.34-1.333.755 0 .416-1.463 1.271-3.25 1.901-6.089 2.147-10.248 3.859-11.75 4.837-.825.537-1.725 1.004-2 1.037-.275.033-2.357 1.033-4.626 2.222-2.27 1.189-4.343 1.946-4.608 1.681-.264-.265-1.05.205-1.746 1.043S213.144 286 212.396 286c-.747 0-4.179 1.334-7.627 2.964-3.448 1.63-10.372 4.532-15.387 6.45-9.757 3.731-18.572 7.578-24.632 10.751-2.063 1.08-3.75 1.639-3.75 1.244s-.824.027-1.831.938c-1.007.912-2.132 1.356-2.5.989-.368-.368-.669-.158-.669.466s-.675.876-1.5.56c-.825-.317-1.5-.092-1.5.5 0 .591-.675.816-1.5.5-.825-.317-1.5-.151-1.5.369 0 1.038-10.086 6.251-12.187 6.299-.722.016-6.486 2.604-12.807 5.75-9.349 4.652-11.993 6.465-14.162 9.709-1.466 2.195-2.474 4.301-2.239 4.681.235.381-.03.974-.589 1.32-1.419.877-1.274 8.852.188 10.314.662.662 1.095 2.823.962 4.802-.133 1.978.314 4.268.994 5.087.68.819 1.137 2.971 1.015 4.782-.149 2.202.291 3.49 1.326 3.887 1.092.419 1.362 1.337.915 3.116-.374 1.492-.206 2.522.413 2.522.576 0 1.041.787 1.033 1.75-.026 3.525 1.242 9.754 2.177 10.689.529.529.961 2.04.961 3.36 0 1.319.635 3.817 1.412 5.55.776 1.733 1.628 6.23 1.892 9.993s.979 7.341 1.588 7.95c.61.61 1.108 2.278 1.108 3.708 0 1.43.389 3.028.865 3.55 2.919 3.204 9.088 25.58 10.673 38.713.383 3.17 1.051 5.983 1.485 6.251.434.268.553 1.39.265 2.492-.288 1.103.034 2.677.716 3.499.683.822.906 1.495.496 1.495-.41 0-.244.604.369 1.342.612.738.828 1.627.48 1.976-.349.348-.081 1.3.595 2.114.675.814.962 1.912.636 2.439-.326.527-.252 1.109.164 1.294.416.184 2.943 4.68 5.616 9.991 6.221 12.359 9.043 15.701 16.815 19.915 6.225 3.375 6.515 3.428 18.325 3.382 11.548-.045 12.263-.174 18.976-3.429 7.465-3.619 10.676-5.892 25.524-18.067 5.225-4.284 14.45-11.656 20.5-16.381 6.05-4.726 12.35-9.747 14-11.158 1.65-1.411 6.825-5.333 11.5-8.715 7.798-5.642 14.097-10.582 39.414-30.916 4.903-3.937 12.328-9.696 16.5-12.797 4.172-3.101 8.199-6.388 8.949-7.303.75-.916 1.715-1.448 2.146-1.182.43.266 1.017-.13 1.305-.88.287-.749 3.597-3.411 7.354-5.914 3.758-2.503 8.154-5.937 9.769-7.631 1.615-1.694 3.415-3.087 4-3.095.585-.008 5.89-3.946 11.789-8.75s15.986-12.56 22.416-17.235c6.431-4.675 12.179-8.956 12.775-9.514.596-.558 4.458-3.46 8.583-6.45 4.125-2.989 9.318-7.032 11.541-8.985 2.222-1.953 6.947-5.646 10.5-8.208 11.361-8.19 50.401-37.654 52.043-39.277.871-.861 2.06-1.566 2.643-1.566.582 0 1.329-.704 1.659-1.563.33-.86 1.053-1.284 1.607-.941.554.342 1.007.238 1.007-.231 0-.924 8.321-7.527 13.567-10.765 23.683-14.622 42.885-32.402 52.232-48.365 1.815-3.099 3.998-6.168 4.851-6.818.852-.651 1.254-1.664.891-2.25-.362-.587-.237-1.067.278-1.067 2.029 0 3.381-9.319 3.893-26.826.377-12.886.202-18.66-.588-19.45-.618-.618-1.124-2.355-1.124-3.859s-.525-4.002-1.166-5.55c-.642-1.548-1.204-3.049-1.25-3.335-.046-.286-1.771-3.062-3.834-6.169-2.062-3.108-3.75-5.941-3.75-6.297 0-1.638-5.653-7.741-12.899-13.928-11.727-10.012-20.551-15.42-28.601-17.528-5.584-1.462-33.368-1.064-43 .615" fill="#fbfbfb" fill-rule="evenodd"/></svg>