<svg viewBox="0 0 637 637"><path d="m478 113-13 2-4 1h4l14-2c10-2 35-2 42-1l6 3 3 1c3 0-4-3-8-5-7-1-34-1-44 1m56 6 8 6c7 5 20 17 20 19s7 12 8 12l-3-6-4-6c0-3-15-17-25-24-5-3-8-4-4-1m-198 16-9 1a512 512 0 0 1 9-1m-180 30a412 412 0 0 0-23 4 167 167 0 0 0-32 8 439 439 0 0 1 46-9 304 304 0 0 1 11-2l6-1h-8m369 8 4 3-7-6c-1 0 0 2 3 3m-439 9c-7 3-18 13-18 15l6-5c5-5 9-8 14-10l6-4-8 4m442 12-10 11-7 6 7-6c7-5 14-14 13-16l-3 5M65 205l-1 11c0 9 0 10 4 17 5 10 7 12 22 11 10 0 15 0 38-5l5-1-6 1-16 2-21 2c-13 1-16-1-21-10-3-5-4-6-4-15l1-12c1-4 1-5-1-1m335 1c3 0 3 1 3 3l-2 6c-2 5-35 39-76 80-53 51-120 117-138 137-21 24-22 25-22 27 0 3 6 9 9 9 4 0 14-8 38-27a5073 5073 0 0 1 15-16 1421 1421 0 0 0-17 15l-31 25-6 2-4-3c-3-3-3-4-2-6 3-8 79-85 160-163 57-57 79-80 79-86 0-2-3-4-7-4-2 0-2 0 1 1m165 18c-9 17-25 32-57 53l-10 8 16-11 12-8c15-10 27-22 39-39 5-7 6-8 4-8l-4 5m-221 2a199 199 0 0 0-19 10 183 183 0 0 1 27-12c0-1-1-1-8 2m-34 16c-3 3-2 3 2 0l1-2-3 2m151 3-1 2 2-2c3-3 2-3-1 0m-16 12-11 10a281 281 0 0 0 11-10m-24 18-7 5-7 5-42 31c-10 7-24 19-22 19l7-6 16-12a343 343 0 0 0 35-25 573 573 0 0 0 20-17m-187 0-2 2 4-2 3-2-5 2m-14 6-3 2 4-1 4-3-5 2m-7 3-8 4-18 8 18-7 7-3 3-1c1-2 0-2-2-1m254 24a2672 2672 0 0 1-71 54 601 601 0 0 0 39-29 1352 1352 0 0 1 32-25m-291-8-2 2 4-2 3-2-5 2m-13 5-2 2h3c5-3 4-4-1-2m-19 9-7 3-13 6c-10 5-13 7-14 10-3 4-2 5 1 0 2-3 5-5 14-9l13-6 12-6-6 2m178 36c-17 12-21 16-21 17a390 390 0 0 1 20-17m-206 34 1 4 1 3 1 5 2 8 1 5v-6l-1-8-2-5-1-4-1-2c-1-2-1-2-1 0m222 23-9 7a683 683 0 0 0-56 44 261 261 0 0 0-26 20 1345 1345 0 0 0-46 34c-6 3-7 3-19 3-11 0-12 0-18-3-8-4-10-8-17-20l-5-10 4 10c5 10 12 18 19 22 4 2 6 2 17 2 13 0 14 0 21-3l26-19 42-33a2183 2183 0 0 0 43-34 643 643 0 0 1 24-20" fill="#fff" fill-rule="evenodd"/><path d="M478 114a620 620 0 0 1-39 6l-21 3a5481 5481 0 0 0-19 3 870 870 0 0 1-54 8l-1 1-6 1-12 2-13 2a992 992 0 0 0-76 12 400 400 0 0 1-45 8l-6 1-5 1h-3l-3 1-2 1-26 4-13 2-17 3c-23 5-33 9-43 19-7 8-9 13-9 27 0 8 1 9 4 14 5 9 8 11 21 10l21-2a1133 1133 0 0 1 23-4 659 659 0 0 0 74-14l3-1h3l3-1h3l2-1 2-1h3l2-1h2l24-5 38-7a2100 2100 0 0 1 93-18l3-1 10-1a2082 2082 0 0 1 120-17l2 1c2 0 8 5 8 7l1 2 1 6c0 4 0 6-3 10-2 4-16 16-18 16l-7 5-10 8a1070 1070 0 0 0-11 7 113 113 0 0 1-20 14l-2 2-3 2-2 2h-1a154 154 0 0 1-28 21l-5 4-5 4a573 573 0 0 1-50 37 175 175 0 0 0-24 18l-1 2-2 1-2 1-2 1-1 1-12 10a396 396 0 0 0-32 25l-8 6-6 5-9 7a326 326 0 0 1-25 20l-13 12a5073 5073 0 0 0-17 15c-24 20-34 27-39 27-2 0-8-6-8-9 0-2 1-3 22-27 18-20 85-86 138-137 41-41 74-75 76-80l2-6c0-2 0-3-2-3l-7 1a233 233 0 0 1-26 9l-1 1-1 1h-1l-1 1h-2l-3 2-1 1h-2l-3 2h-1l-5 2-22 10-9 4-4 2-5 2-10 4-2 1-2 1-2 1-13 6a334 334 0 0 1-38 17 75 75 0 0 0-14 6l-5 2-4 1-2 1-3 2-7 3-16 6a247 247 0 0 0-32 14l-1 1h-2l-1 1h-2l-1 1-12 6a103 103 0 0 0-27 15l-2 5-1 1v11l1 5 1 5 1 4c0 3 0 4 2 4v3l1 3 1 2 2 10 1 4 1 5 2 10 2 8 1 4 1 4c3 3 9 25 11 38l1 7v2l1 4v1l1 1v2l1 2 1 3v1l5 10c7 13 9 16 17 20 6 3 7 3 18 3 12 0 13 0 19-3 8-4 11-6 26-18a1345 1345 0 0 1 85-67 683 683 0 0 1 50-39l12-9a513 513 0 0 1 44-33 201 201 0 0 0 22-17 2270 2270 0 0 0 73-54 158 158 0 0 0 58-59c2 0 3-9 4-27l-1-19-1-4-1-6-1-3-4-6-4-6c0-2-6-8-13-14a77 77 0 0 0-28-18c-6-1-34-1-43 1"/></svg>