<svg xmlns="http://www.w3.org/2000/svg" width="150" height="150" viewBox="0 0 150 150" version="1.1"><path d="M 32.667 28.667 C 32.300 29.033, 32 30.717, 32 32.407 C 32 35.062, 34.553 38.037, 50.740 54.241 L 69.481 73 50.165 92.335 C 31.849 110.669, 30.866 111.847, 31.174 115.085 C 31.468 118.164, 31.836 118.532, 34.915 118.826 C 38.153 119.134, 39.331 118.151, 57.665 99.835 L 77 80.519 96.335 99.835 C 114.669 118.151, 115.847 119.134, 119.085 118.826 C 122.164 118.532, 122.532 118.164, 122.826 115.085 C 123.134 111.847, 122.151 110.669, 103.835 92.335 L 84.519 73 103.335 54.165 C 121.162 36.319, 122.134 35.150, 121.826 31.915 C 121.532 28.836, 121.164 28.468, 118.085 28.174 C 114.850 27.866, 113.681 28.838, 95.835 46.664 L 77 65.480 58.240 46.740 C 42.037 30.553, 39.062 28, 36.407 28 C 34.717 28, 33.033 28.300, 32.667 28.667 M 33 32.240 C 33 35.112, 35.135 37.618, 51.740 54.241 L 70.481 73 51.240 92.260 C 34.173 109.343, 32 111.885, 32 114.759 C 32 117.747, 32.253 118, 35.241 118 C 38.115 118, 40.657 115.827, 57.741 98.760 L 77 79.519 96.259 98.760 C 113.343 115.827, 115.885 118, 118.759 118 C 121.747 118, 122 117.747, 122 114.759 C 122 111.885, 119.827 109.343, 102.760 92.260 L 83.519 73 102.260 54.241 C 118.865 37.618, 121 35.112, 121 32.240 C 121 29.253, 120.747 29, 117.760 29 C 114.888 29, 112.382 31.135, 95.760 47.740 L 77 66.480 58.240 47.740 C 41.618 31.135, 39.112 29, 36.240 29 C 33.253 29, 33 29.253, 33 32.240" stroke="none" fill="#040404" fill-rule="evenodd"/><path d="M 33 32.240 C 33 35.112, 35.135 37.618, 51.740 54.241 L 70.481 73 51.240 92.260 C 34.173 109.343, 32 111.885, 32 114.759 C 32 117.747, 32.253 118, 35.241 118 C 38.115 118, 40.657 115.827, 57.741 98.760 L 77 79.519 96.259 98.760 C 113.343 115.827, 115.885 118, 118.759 118 C 121.747 118, 122 117.747, 122 114.759 C 122 111.885, 119.827 109.343, 102.760 92.260 L 83.519 73 102.260 54.241 C 118.865 37.618, 121 35.112, 121 32.240 C 121 29.253, 120.747 29, 117.760 29 C 114.888 29, 112.382 31.135, 95.760 47.740 L 77 66.480 58.240 47.740 C 41.618 31.135, 39.112 29, 36.240 29 C 33.253 29, 33 29.253, 33 32.240" stroke="none" fill="#dc0404" fill-rule="evenodd"/></svg>