<svg xmlns="http://www.w3.org/2000/svg" width="124" height="124" viewBox="0 0 124 124" version="1.1"><path d="M 17.667 16.667 C 17.300 17.033, 17 18.717, 17 20.407 C 17 23.062, 19.553 26.037, 35.740 42.241 L 54.481 61 35.165 80.335 C 16.849 98.669, 15.866 99.847, 16.174 103.085 C 16.480 106.292, 16.744 106.517, 20.500 106.783 C 24.468 107.065, 24.652 106.914, 43.490 88.033 L 62.481 69 81.570 88.070 C 100.452 106.933, 100.703 107.138, 104.580 106.821 C 108.236 106.522, 108.522 106.270, 108.826 103.085 C 109.134 99.847, 108.151 98.669, 89.835 80.335 L 70.519 61 89.335 42.165 C 107.162 24.319, 108.134 23.150, 107.826 19.915 C 107.522 16.730, 107.236 16.478, 103.580 16.180 C 99.706 15.863, 99.443 16.077, 81.070 34.430 L 62.480 53.001 44 34.500 C 26.879 17.361, 25.256 16, 21.927 16 C 19.950 16, 18.033 16.300, 17.667 16.667" stroke="none" fill="#fffcfc" fill-rule="evenodd"/><path d="" stroke="none" fill="#fcfcfc" fill-rule="evenodd"/></svg>