<svg xmlns="http://www.w3.org/2000/svg" width="128" height="128" viewBox="0 0 128 128" version="1.1"><path d="" stroke="none" fill="#888484" fill-rule="evenodd"/><path d="M 50.275 13.539 C 27.688 19.622, 12 39.895, 12 63 C 12 91.033, 34.967 114, 63 114 C 95.918 114, 120.734 82.274, 112.511 50.703 C 105.357 23.236, 77.044 6.329, 50.275 13.539 M 52 21.360 C 33.022 26.527, 20.049 43.433, 20.049 63 C 20.049 86.859, 39.141 105.951, 63 105.951 C 90.669 105.951, 111.168 80.127, 104.940 53.115 C 101.406 37.784, 88.216 24.594, 72.885 21.060 C 67.044 19.713, 57.548 19.850, 52 21.360 M 40.455 42.455 C 38.907 44.002, 38 46.052, 38 48 C 38 49.948, 38.907 51.998, 40.455 53.545 C 42.002 55.093, 44.052 56, 46 56 C 52.991 56, 56.506 47.415, 51.545 42.455 C 49.998 40.907, 47.948 40, 46 40 C 44.052 40, 42.002 40.907, 40.455 42.455 M 74.455 42.455 C 72.907 44.002, 72 46.052, 72 48 C 72 49.948, 72.907 51.998, 74.455 53.545 C 79.415 58.506, 88 54.991, 88 48 C 88 43.889, 84.111 40, 80 40 C 78.052 40, 76.002 40.907, 74.455 42.455 M 31 73.335 C 31 76.979, 37.548 87.731, 40.260 88.540 C 41.492 88.908, 43.625 89.934, 45 90.821 C 49.563 93.764, 58.427 96.337, 64 96.337 C 69.573 96.337, 78.437 93.764, 83 90.821 C 84.375 89.934, 86.508 88.908, 87.740 88.540 C 90.452 87.731, 97 76.979, 97 73.335 C 97 70.929, 96.778 70.817, 93.250 71.439 C 91.188 71.804, 88.703 73.091, 87.730 74.301 C 86.756 75.510, 85.151 77.458, 84.162 78.630 C 79.558 84.087, 67.346 87.091, 57.791 85.118 C 54.376 84.412, 50.244 83.143, 48.608 82.297 C 45.814 80.853, 44.630 79.717, 40.270 74.301 C 39.297 73.091, 36.813 71.804, 34.750 71.439 C 31.222 70.817, 31 70.929, 31 73.335" stroke="none" fill="#848484" fill-rule="evenodd"/></svg>