<svg viewBox="0 -960 960 960"><path d="M625-511q29 0 50-21t20-50q0-29-20-50-21-20-50-20t-50 20-20 50q0 29 20 50 21 21 50 21Zm-290 0q29 0 50-21t20-49q0-30-20-50t-50-21q-29 0-50 20-20 21-20 50 0 30 20 50 21 21 50 21Zm145 268q75 0 137-43t85-115H258q24 72 85 115 62 43 137 43Zm0 198q-90 0-170-34-79-34-138-93T79-310q-34-80-34-170t34-170q34-79 93-138t138-93q80-34 170-34t170 34q79 34 138 93t93 138q34 80 34 170t-34 170q-34 79-93 138T650-79q-80 34-170 34Zm0-435Zm0 322q134 0 228-94t94-228q0-134-94-228t-228-94q-134 0-228 94t-94 228q0 134 94 228t228 94Z"/></svg>