<svg xmlns="http://www.w3.org/2000/svg" version="1.1" viewBox="0 0 120 120"><path d="M56 4.407c-3.797 1.361-7.564 6.23-10.339 13.363C44.226 21.458 44 26.79 44 56.885c0 33.855.06 34.921 2.095 37.508 2.652 3.372 8.929 6.607 12.82 6.607 3.207 0 6.711-2.886 10.775-8.875C71.989 88.737 72 88.565 72 55.36V22H62l-.014 30.75c-.007 16.912-.261 31.672-.564 32.8-.687 2.558-3.841 4.61-5.882 3.827-1.344-.516-1.54-4.879-1.54-34.349 0-31.176.14-33.941 1.83-36.143 1.006-1.312 2.117-3.173 2.468-4.135.49-1.342 1.783-1.75 5.548-1.75 5.725 0 10.734 1.928 13.904 5.352C79.998 20.78 80 20.813 80 57.391 80 77.526 79.658 94 79.241 94c-.418 0-1.322.9-2.009 2-1.556 2.492-1.144 2.525 1.615.133C80.979 94.284 81 93.899 81 57.178V20.091l-2.666-2.666c-3.615-3.616-8.323-5.428-14.052-5.41-5.707.019-6.138.29-9.032 5.686C53.043 21.816 53 22.545 53 55.948 53 75.961 53.379 90 53.918 90c.505 0 1.547.241 2.315.536.769.295 2.605-.584 4.082-1.952L63 86.095V23h8v31.953c0 22.603-.351 32.771-1.198 34.75-2.011 4.693-7.979 10.261-11.018 10.28-4.059.025-9.081-2.743-11.572-6.379C45.036 90.429 45 89.823 45 56.317V22.258l3.127-7.078c2.753-6.233 3.647-7.324 7.489-9.129C62.471 2.828 70.71 3.24 78.767 7.206c10.764 5.299 10.225 2.682 10.229 49.64.004 39.363-.047 40.417-2.092 43.289-3.303 4.639-12.533 10.895-20.812 14.107-6.871 2.666-8.042 2.844-12.329 1.872-5.695-1.29-11.665-4.913-16.905-10.259C30.059 98.918 30 98.547 30 62.378V30h8v32.277c0 38.078-.713 35.502 11.86 42.859 3.395 1.987 6.719 3.137 9.065 3.137 3.977 0 10.861-3.284 15.015-7.163l2.56-2.39-3 1.932c-1.65 1.062-5.48 3.15-8.512 4.638-6.118 3.005-9.325 2.743-14.888-1.219-1.6-1.139-3.369-2.071-3.932-2.071-.562 0-2.405-1.678-4.095-3.728L39 94.544V29H29v33.941c0 21.549.365 34.167 1 34.559.55.34 1 1.337 1 2.215 0 .878 1.8 3.361 4 5.518 2.2 2.157 4 4.336 4 4.844s.638.923 1.417.923 1.566.337 1.75.75c.183.412 2.583 1.875 5.333 3.25 5.855 2.927 13.334 3.198 18 .65 1.65-.901 3.493-1.64 4.096-1.644 1.821-.01 7.404-3.086 7.404-4.079 0-.51.685-.927 1.522-.927.838 0 3.776-2.362 6.531-5.25l5.008-5.25-.281-42.276-.28-42.276-3.683-3.474c-2.026-1.911-4.276-3.477-5-3.481-.724-.003-2.667-.9-4.317-1.993-3.531-2.339-14.728-2.662-20.5-.593" fill="#848484" fill-rule="evenodd"/><path d="M55.376 6.101c-3.541 1.719-4.566 3.003-7.25 9.08L45 22.258v34.059c0 33.506.036 34.112 2.212 37.287 2.491 3.636 7.513 6.404 11.572 6.379 3.039-.019 9.007-5.587 11.018-10.28C70.649 87.724 71 77.556 71 54.953V23h-8v63.095l-2.685 2.489c-1.477 1.368-3.313 2.247-4.082 1.952-.768-.295-1.81-.536-2.315-.536C53.379 90 53 75.961 53 55.948c0-33.403.043-34.132 2.25-38.247 2.894-5.396 3.325-5.667 9.032-5.686 5.729-.018 10.437 1.794 14.052 5.41L81 20.091V93.99l-4.781 4.755c-5.979 5.946-12.481 9.528-17.294 9.528-2.346 0-5.67-1.15-9.065-3.137C37.287 97.779 38 100.355 38 62.277V30h-8v32.378c0 36.169.059 36.54 6.858 43.477 5.24 5.346 11.21 8.969 16.905 10.259 4.287.972 5.458.794 12.329-1.872 8.279-3.212 17.509-9.468 20.812-14.107 2.045-2.872 2.096-3.926 2.092-43.289-.004-46.958.535-44.341-10.229-49.64-7.992-3.935-16.712-4.346-23.391-1.105" fill="#848484" fill-rule="evenodd"/></svg>