<svg xmlns="http://www.w3.org/2000/svg" width="102" height="102" viewBox="0 0 102 102" version="1.1"><path d="M 27.488 9.924 C 24.923 10.989, 17.002 18.872, 16.994 20.368 C 16.990 20.990, 16.337 22.748, 15.541 24.274 C 13.455 28.272, 12.508 38.212, 13.955 40.916 C 15.915 44.577, 19.329 43.290, 20.364 38.500 C 20.840 36.300, 21.581 33.600, 22.012 32.500 C 24.409 26.384, 26.202 23, 27.047 23 C 27.571 23, 28 22.390, 28 21.645 C 28 20.900, 29.384 19.143, 31.076 17.742 C 33.435 15.788, 34.076 14.530, 33.826 12.347 C 33.474 9.276, 31.171 8.396, 27.488 9.924 M 68.667 9.667 C 66.959 11.374, 68.173 15.623, 71.009 17.863 C 72.654 19.162, 74 20.849, 74 21.613 C 74 22.376, 74.429 23, 74.953 23 C 75.798 23, 77.591 26.384, 79.988 32.500 C 80.419 33.600, 81.160 36.300, 81.636 38.500 C 82.671 43.290, 86.085 44.577, 88.045 40.916 C 89.492 38.212, 88.545 28.272, 86.459 24.274 C 85.663 22.748, 85.010 20.990, 85.006 20.368 C 84.997 18.733, 76.960 10.935, 74.205 9.888 C 71.423 8.830, 69.577 8.756, 68.667 9.667 M 28 10.708 C 25.216 11.729, 18.944 18.964, 17.088 23.295 C 13.296 32.141, 13.246 42, 16.992 42 C 18.365 42, 19.002 40.947, 19.534 37.798 C 20.560 31.724, 23.581 25.224, 27.790 20.033 C 29.812 17.540, 31.811 15.350, 32.233 15.167 C 32.655 14.983, 33 13.746, 33 12.417 C 33 9.988, 31.428 9.451, 28 10.708 M 69 12.292 C 69 13.690, 69.345 14.983, 69.767 15.167 C 70.189 15.350, 72.188 17.540, 74.210 20.033 C 78.419 25.224, 81.440 31.724, 82.466 37.798 C 83.351 43.037, 86.454 43.764, 87.505 38.978 C 89.703 28.969, 80.669 12.084, 72.210 10.392 C 69.270 9.804, 69 9.964, 69 12.292 M 48.709 11.624 C 48.319 12.014, 47.999 13.046, 47.998 13.917 C 47.996 14.899, 45.552 16.588, 41.556 18.367 C 34.180 21.651, 32.528 24.105, 30.824 34.298 C 27.507 54.149, 27.257 54.798, 20.292 61.593 C 12.968 68.740, 12.333 71.691, 17.323 75.401 C 20.048 77.427, 21.226 77.500, 51 77.500 C 80.774 77.500, 81.952 77.427, 84.677 75.401 C 89.667 71.691, 89.032 68.740, 81.708 61.593 C 74.743 54.798, 74.493 54.149, 71.176 34.298 C 69.475 24.120, 67.816 21.651, 60.480 18.377 C 56.038 16.395, 53.988 14.903, 53.788 13.509 C 53.502 11.512, 50.088 10.245, 48.709 11.624 M 49.688 12.646 C 49.309 13.024, 49 14.048, 49 14.922 C 49 15.940, 46.818 17.356, 42.916 18.869 C 35.837 21.614, 33.577 24.545, 32.042 32.975 C 28.442 52.751, 27.948 54.481, 24.768 58.481 C 23.012 60.692, 21.194 62.659, 20.730 62.852 C 17.998 63.993, 14.915 68.444, 15.193 70.845 C 15.801 76.079, 18.467 76.500, 51 76.500 C 83.533 76.500, 86.199 76.079, 86.807 70.845 C 87.085 68.444, 84.002 63.993, 81.270 62.852 C 80.806 62.659, 78.988 60.692, 77.232 58.481 C 74.052 54.481, 73.558 52.751, 69.958 32.975 C 68.425 24.559, 66.160 21.613, 59.124 18.885 C 54.933 17.260, 52.990 15.945, 52.789 14.599 C 52.482 12.538, 50.833 11.500, 49.688 12.646 M 43 81.923 C 43 84.904, 48.678 90, 52 90 C 55.322 90, 61 84.904, 61 81.923 C 61 80.168, 60.213 80, 52 80 C 43.787 80, 43 80.168, 43 81.923 M 44 82.364 C 44 83.114, 45.186 84.914, 46.636 86.364 C 50.053 89.781, 53.947 89.781, 57.364 86.364 C 61.855 81.873, 60.982 81, 52 81 C 45.911 81, 44 81.326, 44 82.364" stroke="none" fill="#fcec3c" fill-rule="evenodd"/><path d="M 28 10.708 C 25.216 11.729, 18.944 18.964, 17.088 23.295 C 13.296 32.141, 13.246 42, 16.992 42 C 18.365 42, 19.002 40.947, 19.534 37.798 C 20.560 31.724, 23.581 25.224, 27.790 20.033 C 29.812 17.540, 31.811 15.350, 32.233 15.167 C 32.655 14.983, 33 13.746, 33 12.417 C 33 9.988, 31.428 9.451, 28 10.708 M 69 12.292 C 69 13.690, 69.345 14.983, 69.767 15.167 C 70.189 15.350, 72.188 17.540, 74.210 20.033 C 78.419 25.224, 81.440 31.724, 82.466 37.798 C 83.351 43.037, 86.454 43.764, 87.505 38.978 C 89.703 28.969, 80.669 12.084, 72.210 10.392 C 69.270 9.804, 69 9.964, 69 12.292 M 49.688 12.646 C 49.309 13.024, 49 14.048, 49 14.922 C 49 15.940, 46.818 17.356, 42.916 18.869 C 35.837 21.614, 33.577 24.545, 32.042 32.975 C 28.442 52.751, 27.948 54.481, 24.768 58.481 C 23.012 60.692, 21.194 62.659, 20.730 62.852 C 17.998 63.993, 14.915 68.444, 15.193 70.845 C 15.801 76.079, 18.467 76.500, 51 76.500 C 83.533 76.500, 86.199 76.079, 86.807 70.845 C 87.085 68.444, 84.002 63.993, 81.270 62.852 C 80.806 62.659, 78.988 60.692, 77.232 58.481 C 74.052 54.481, 73.558 52.751, 69.958 32.975 C 68.425 24.559, 66.160 21.613, 59.124 18.885 C 54.933 17.260, 52.990 15.945, 52.789 14.599 C 52.482 12.538, 50.833 11.500, 49.688 12.646 M 44 82.364 C 44 83.114, 45.186 84.914, 46.636 86.364 C 50.053 89.781, 53.947 89.781, 57.364 86.364 C 61.855 81.873, 60.982 81, 52 81 C 45.911 81, 44 81.326, 44 82.364" stroke="none" fill="#fcec3c" fill-rule="evenodd"/></svg>