<svg xmlns="http://www.w3.org/2000/svg" version="1.1" viewBox="0 0 102 102"><path d="M27.488 9.924c-2.565 1.065-10.486 8.948-10.494 10.444-.004.622-.657 2.38-1.453 3.906-2.086 3.998-3.033 13.938-1.586 16.642 1.96 3.661 5.374 2.374 6.409-2.416.476-2.2 1.217-4.9 1.648-6 2.397-6.116 4.19-9.5 5.035-9.5.524 0 .953-.61.953-1.355s1.384-2.502 3.076-3.903c2.359-1.954 3-3.212 2.75-5.395-.352-3.071-2.655-3.951-6.338-2.423m41.179-.257c-1.708 1.707-.494 5.956 2.342 8.196C72.654 19.162 74 20.849 74 21.613c0 .763.429 1.387.953 1.387.845 0 2.638 3.384 5.035 9.5.431 1.1 1.172 3.8 1.648 6 1.035 4.79 4.449 6.077 6.409 2.416 1.447-2.704.5-12.644-1.586-16.642-.796-1.526-1.449-3.284-1.453-3.906-.009-1.635-8.046-9.433-10.801-10.48-2.782-1.058-4.628-1.132-5.538-.221M28 10.708c-2.784 1.021-9.056 8.256-10.912 12.587C13.296 32.141 13.246 42 16.992 42c1.373 0 2.01-1.053 2.542-4.202 1.026-6.074 4.047-12.574 8.256-17.765 2.022-2.493 4.021-4.683 4.443-4.866.422-.184.767-1.421.767-2.75 0-2.429-1.572-2.966-5-1.709m41 1.584c0 1.398.345 2.691.767 2.875.422.183 2.421 2.373 4.443 4.866 4.209 5.191 7.23 11.691 8.256 17.765.885 5.239 3.988 5.966 5.039 1.18 2.198-10.009-6.836-26.894-15.295-28.586-2.94-.588-3.21-.428-3.21 1.9m-20.291-.668c-.39.39-.71 1.422-.711 2.293-.002.982-2.446 2.671-6.442 4.45-7.376 3.284-9.028 5.738-10.732 15.931-3.317 19.851-3.567 20.5-10.532 27.295-7.324 7.147-7.959 10.098-2.969 13.808C20.048 77.427 21.226 77.5 51 77.5s30.952-.073 33.677-2.099c4.99-3.71 4.355-6.661-2.969-13.808-6.965-6.795-7.215-7.444-10.532-27.295-1.701-10.178-3.36-12.647-10.696-15.921-4.442-1.982-6.492-3.474-6.692-4.868-.286-1.997-3.7-3.264-5.079-1.885m.979 1.022c-.379.378-.688 1.402-.688 2.276 0 1.018-2.182 2.434-6.084 3.947-7.079 2.745-9.339 5.676-10.874 14.106-3.6 19.776-4.094 21.506-7.274 25.506-1.756 2.211-3.574 4.178-4.038 4.371-2.732 1.141-5.815 5.592-5.537 7.993C15.801 76.079 18.467 76.5 51 76.5s35.199-.421 35.807-5.655c.278-2.401-2.805-6.852-5.537-7.993-.464-.193-2.282-2.16-4.038-4.371-3.18-4-3.674-5.73-7.274-25.506-1.533-8.416-3.798-11.362-10.834-14.09-4.191-1.625-6.134-2.94-6.335-4.286-.307-2.061-1.956-3.099-3.101-1.953M43 81.923C43 84.904 48.678 90 52 90s9-5.096 9-8.077C61 80.168 60.213 80 52 80s-9 .168-9 1.923m1 .441c0 .75 1.186 2.55 2.636 4 3.417 3.417 7.311 3.417 10.728 0C61.855 81.873 60.982 81 52 81c-6.089 0-8 .326-8 1.364" fill="#fcec3c" fill-rule="evenodd"/><path d="M28 10.708c-2.784 1.021-9.056 8.256-10.912 12.587C13.296 32.141 13.246 42 16.992 42c1.373 0 2.01-1.053 2.542-4.202 1.026-6.074 4.047-12.574 8.256-17.765 2.022-2.493 4.021-4.683 4.443-4.866.422-.184.767-1.421.767-2.75 0-2.429-1.572-2.966-5-1.709m41 1.584c0 1.398.345 2.691.767 2.875.422.183 2.421 2.373 4.443 4.866 4.209 5.191 7.23 11.691 8.256 17.765.885 5.239 3.988 5.966 5.039 1.18 2.198-10.009-6.836-26.894-15.295-28.586-2.94-.588-3.21-.428-3.21 1.9m-19.312.354c-.379.378-.688 1.402-.688 2.276 0 1.018-2.182 2.434-6.084 3.947-7.079 2.745-9.339 5.676-10.874 14.106-3.6 19.776-4.094 21.506-7.274 25.506-1.756 2.211-3.574 4.178-4.038 4.371-2.732 1.141-5.815 5.592-5.537 7.993C15.801 76.079 18.467 76.5 51 76.5s35.199-.421 35.807-5.655c.278-2.401-2.805-6.852-5.537-7.993-.464-.193-2.282-2.16-4.038-4.371-3.18-4-3.674-5.73-7.274-25.506-1.533-8.416-3.798-11.362-10.834-14.09-4.191-1.625-6.134-2.94-6.335-4.286-.307-2.061-1.956-3.099-3.101-1.953M44 82.364c0 .75 1.186 2.55 2.636 4 3.417 3.417 7.311 3.417 10.728 0C61.855 81.873 60.982 81 52 81c-6.089 0-8 .326-8 1.364" fill="#fcec3c" fill-rule="evenodd"/></svg>