<svg width="400" height="400" xmlns="http://www.w3.org/2000/svg"><g stroke-width="0" fill="#fcec3c"><ellipse ry="43.5" rx="174" cy="293" cx="203"/><path d="M137 323c19-22 45-22 64-1 19-20 44-21 62-2l34-51c-21-32-21-83 0-115 3-11 4-10 5-21 1-27-4-51-17-70-11-16-27-23-42-21-26-2-38-18-43-28-7 10-18 27-50 30-20 4-27 11-36 24a106 106 0 0 0-11 90c21 32 21 84 0 116l34 49z"/><path d="m305 132-106 8" /><path d="M241 349v20c0 11-18 20-40 20s-40-9-40-20v-20h80zm-98-22-93-58c10 7 32-9 48-35s21-53 11-59l93 58c10 6 5 33-11 59s-38 42-48 35z"/><path d="m198 235 91-61c-10 7-5 33 12 59 17 25 39 41 50 34l-91 61c-11 6-33-9-50-35-17-25-22-51-12-58zM73 156c-25-8-35-42-24-77 11-34 40-56 65-48-19 11-35 31-43 56s-7 50 2 69z"/><path d="M73 156c-25-8-35-42-24-77 11-34 40-56 65-48-19 11-35 31-43 56s-7 50 2 69zM287 31c25-8 54 13 65 48 11 34 0 69-24 77 9-20 10-45 2-70s-24-45-43-55z"/></g><path d="m231 201 73-78c-9 10 10 94 23 142 13 47 50 30 40 18s-145-72-136-82z" fill="#fcec3c"/><path d="m230 201 73-78c-9 10 27 147 41 158 14 10 35 12 22 18m-189-89-81-84c5 12 4 73-14 120-17 47-56 27-42 34" fill="#fcec3c"/></svg>