<svg xmlns="http://www.w3.org/2000/svg" width="85" height="85" viewBox="0 0 85 85" version="1.1"><path d="M 2 2.774 C 2 3.199, 4.397 10.721, 7.326 19.489 L 12.651 35.430 24.555 38.388 C 31.103 40.015, 35.794 41.572, 34.980 41.846 C 34.166 42.121, 28.806 43.526, 23.068 44.968 L 12.636 47.591 7.214 63.858 C 4.232 72.805, 2.013 80.346, 2.284 80.617 C 2.554 80.887, 20.603 72.199, 42.391 61.309 L 82.007 41.508 42.753 21.809 C 21.164 10.974, 3.163 2.084, 2.750 2.054 C 2.337 2.024, 2 2.348, 2 2.774 M 3.228 4.186 C 3.498 4.909, 5.880 12.052, 8.521 20.060 L 13.323 34.620 24.745 37.560 C 31.027 39.177, 36.166 40.950, 36.166 41.500 C 36.166 42.050, 31.029 43.822, 24.751 45.438 L 13.335 48.376 8.191 63.879 C 5.362 72.405, 3.149 79.472, 3.274 79.583 C 3.398 79.694, 20.714 71.169, 41.753 60.638 L 80.007 41.491 41.372 22.182 C 20.123 11.561, 2.958 3.463, 3.228 4.186" stroke="none" fill="#fcfcfc" fill-rule="evenodd"/><path d="M 3.228 4.186 C 3.498 4.909, 5.880 12.052, 8.521 20.060 L 13.323 34.620 24.745 37.560 C 31.027 39.177, 36.166 40.950, 36.166 41.500 C 36.166 42.050, 31.029 43.822, 24.751 45.438 L 13.335 48.376 8.191 63.879 C 5.362 72.405, 3.149 79.472, 3.274 79.583 C 3.398 79.694, 20.714 71.169, 41.753 60.638 L 80.007 41.491 41.372 22.182 C 20.123 11.561, 2.958 3.463, 3.228 4.186" stroke="none" fill="#fcfcfc" fill-rule="evenodd"/></svg>