<svg xmlns="http://www.w3.org/2000/svg" width="90" height="90" viewBox="0 0 90 90" version="1.1"><path d="M 38.062 25.827 C 28.834 30.776, 28.834 45.224, 38.062 50.173 C 50.593 56.893, 63.893 43.593, 57.173 31.062 C 54.984 26.980, 49.846 24, 45 24 C 43.058 24, 39.936 24.822, 38.062 25.827 M 35 60.576 C 27.228 64.982, 23.960 69.562, 21.023 80.160 C 19.910 84.175, 19 88.031, 19 88.730 C 19 89.724, 24.647 90, 45 90 C 65.353 90, 71 89.724, 71 88.730 C 71 86.070, 66.879 72.741, 65.265 70.180 C 58.196 58.961, 45.149 54.821, 35 60.576" stroke="none" fill="#5c5c5c" fill-rule="evenodd"/><path d="M 0 45 L 0 90 9.317 90 L 18.634 90 20.370 82.636 C 22.366 74.170, 25.057 68.651, 29.062 64.804 C 38.455 55.783, 51.545 55.783, 60.938 64.804 C 64.948 68.655, 67.634 74.172, 69.638 82.670 L 71.382 90.068 80.941 89.784 L 90.500 89.500 90.760 44.750 L 91.021 0 45.510 0 L 0 0 0 45 M 0.460 45.500 C 0.460 70.250, 0.590 80.232, 0.749 67.682 C 0.908 55.132, 0.908 34.882, 0.749 22.682 C 0.590 10.482, 0.460 20.750, 0.460 45.500 M 38.062 25.827 C 28.834 30.776, 28.834 45.224, 38.062 50.173 C 50.593 56.893, 63.893 43.593, 57.173 31.062 C 54.984 26.980, 49.846 24, 45 24 C 43.058 24, 39.936 24.822, 38.062 25.827" stroke="none" fill="#c4c4c4" fill-rule="evenodd"/></svg>