<svg xmlns="http://www.w3.org/2000/svg" version="1.1" viewBox="0 0 108 108"><path d="M37 21c0 .588 3.5 1 8.5 1 8.5 0 8.5 0 8.5 3.462 0 3.463 0 3.463-9.25 3.793-9.25.33-9.25.33 0 .537C54 30 54 30 54 33.464s0 3.464-9.75 3.79c-9.75.327-9.75.327.063.537 9.814.209 9.814.209 9.5 3.459-.313 3.25-.313 3.25-9.313 3.811-9 .561-9 .561-1.715.75 6.867.178 7.226.3 6.25 2.123-1.621 3.03-1.219 7.563.913 10.273 1.344 1.708 2.06 4.464 2.307 8.885.36 6.408.36 6.408.552.158.169-5.467.438-6.25 2.145-6.25 1.691 0 2 .839 2.308 6.25.355 6.25.355 6.25.547-.092.141-4.616.738-7.035 2.193-8.885 2.178-2.769 2.599-7.285.965-10.339-.979-1.829-.611-1.944 6.75-2.125 7.785-.192 7.785-.192-1.715-.75-9.5-.559-9.5-.559-9.811-3.773-.31-3.215-.31-3.215 10-3.539 10.311-.325 10.311-.325.061-.536C56 37 56 37 56 33.536s0-3.464 9.75-3.79c9.75-.327 9.75-.327 0-.537C56 29 56 29 56 25.5s0-3.5 8.5-3.5c5 0 8.5-.412 8.5-1 0-.63-6.667-1-18-1s-18 .37-18 1" fill="#ec1c24" fill-rule="evenodd"/><path d="M49.243 5.85c-4.078 1.175-9.259 6.193-11.773 11.403C36.112 20.07 35 22.515 35 22.687c0 .172 3.375.313 7.5.313 4.333 0 7.5.422 7.5 1 0 .57-2.959 1-6.878 1-4.893 0-7.236.433-8.122 1.5-2.394 2.885.52 4.5 8.122 4.5 3.919 0 6.878.43 6.878 1 0 .576-3.126 1-7.378 1-5.337 0-7.721.415-8.622 1.5-2.394 2.885.52 4.5 8.122 4.5 3.919 0 6.878.43 6.878 1 0 .562-2.793 1-6.378 1-4.449 0-6.754.454-7.622 1.5-2.11 2.542.535 4.477 6.372 4.663 5.128.163 5.128.163-.372.75s-5.5.587-5.146 6.424c.383 6.304 1.318 8.706 5.164 13.266C44.59 71.837 48.04 74 51.223 74 54 74 54 74 53.807 67.25c-.192-6.75-.192-6.75-.547-.5-.332 5.845-.512 6.25-2.773 6.25-3.056 0-9.053-5.209-11.405-9.905-.989-1.977-2.064-5.935-2.388-8.795-.588-5.199-.588-5.199 4.609-5.5 6.85-.396 6.659-2.167-.303-2.8-4-.364-5.5-.909-5.5-2 0-1.143 1.667-1.619 7-2s7-.857 7-2c0-1.156-1.722-1.615-7.5-2-5.778-.385-7.5-.844-7.5-2 0-1.167 1.778-1.611 8-2 6.222-.389 8-.833 8-2 0-1.156-1.722-1.615-7.5-2-5.778-.385-7.5-.844-7.5-2 0-1.156 1.722-1.615 7.5-2 5.778-.385 7.5-.844 7.5-2 0-1.166-1.589-1.565-7.139-1.792-7.139-.291-7.139-.291-5.163-4.5 7.238-15.415 26.223-15.338 34.485.14 2.173 4.07 2.173 4.07-5.505 4.361-6.029.229-7.678.613-7.678 1.791 0 1.167 1.778 1.611 8 2 6.222.389 8 .833 8 2s-1.778 1.611-8 2c-6.222.389-8 .833-8 2 0 1.176 1.833 1.608 8.5 2 6.667.392 8.5.824 8.5 2 0 1.167-1.778 1.611-8 2-6.222.389-8 .833-8 2 0 1.156 1.722 1.615 7.5 2 5.778.385 7.5.844 7.5 2 0 1.102-1.53 1.633-5.769 2-7.266.63-7.921 2.402-1.034 2.8 5.197.301 5.197.301 4.609 5.5-.324 2.86-1.408 6.836-2.41 8.836C68.759 67.405 62.098 73 59.154 73c-1.821 0-2.1-.723-2.414-6.25-.355-6.25-.355-6.25-.547.5-.19 6.649-.154 6.75 2.403 6.75 2.461 0 7.076-2.662 10.39-5.995 2.511-2.524 4.915-9.201 5.223-14.505.291-5 .291-5-5.209-5.587-5.5-.587-5.5-.587.128-.75 6.335-.183 9.057-2.03 6.872-4.663-.886-1.067-3.229-1.5-8.122-1.5C63.959 41 61 40.57 61 40c0-.576 3.126-1 7.378-1 8.107 0 11.072-1.548 8.622-4.5-.914-1.101-3.34-1.5-9.122-1.5C63.293 33 60 32.582 60 32c0-.576 3.126-1 7.378-1 8.107 0 11.072-1.548 8.622-4.5-.901-1.085-3.285-1.5-8.622-1.5C63.126 25 60 24.576 60 24c0-.576 3.111-1 7.333-1 4.034 0 7.602-.268 7.929-.596.807-.806-2.837-7.239-6.106-10.78-4.967-5.379-13.099-7.738-19.913-5.774M26.402 43.394c-.325.848-.434 5.944-.241 11.324.312 8.712.652 10.227 3.107 13.849 3.501 5.168 13.688 12.242 18.805 13.061C52 82.256 52 82.256 52 90.589s0 8.333-8.75 8.622c-8.59.284-8.75.335-8.75 2.789 0 2.5 0 2.5 20.5 2.5s20.5 0 20.5-2.5c0-2.454-.16-2.505-8.75-2.789-8.75-.289-8.75-.289-8.75-8.75 0-7.839.149-8.461 2.032-8.461 2.695 0 9.447-2.855 8.646-3.656-.346-.346-1.225-.135-1.953.47-.729.604-3.214 1.401-5.525 1.77-4.2.672-4.2.672-4.2 10.044S57 100 66 100c8.333 0 9 .148 9 2 0 1.933-.667 2-20 2s-20-.067-20-2c0-1.852.667-2 9-2 9 0 9 0 9-9.372s0-9.372-4.139-10.034c-5.197-.831-15.553-7.693-18.839-12.482-2.183-3.181-2.521-4.894-2.839-14.362-.312-9.306-.147-10.75 1.229-10.75 1.31 0 1.596 1.354 1.632 7.75.05 8.76 1.784 14.741 4.911 16.931 1.169.819 2.894 2.272 3.835 3.229 6.785 6.905 17.94 8.639 26.21 4.074 2.475-1.366 4.86-3.046 5.3-3.734.44-.687 1.267-1.25 1.839-1.25.572 0 1.924-1.013 3.005-2.25C78.755 63.614 80 59.329 80 51.032c0-6.473.291-8.032 1.5-8.032 2.247 0 2.16 18.613-.102 21.842-.881 1.258-1.364 2.525-1.074 2.816.291.29 1.253-.873 2.138-2.585 1.228-2.374 1.542-5.421 1.324-12.843-.264-8.968-.443-9.73-2.286-9.73-1.809 0-2.056.862-2.585 9-.71 10.919-1.638 13.34-6.584 17.172-12.856 9.96-19.798 10.52-31.26 2.518-8.431-5.885-9.333-7.59-9.997-18.904-.484-8.241-.848-9.817-2.327-10.099-.964-.184-2.019.359-2.345 1.207M74 74c-2.475 2.167-3.923 3.954-3.219 3.97.705.017 1.541-.645 1.857-1.47.317-.825 1.038-1.5 1.602-1.5.91 0 4.76-3.764 4.76-4.653 0-.652-.504-.284-5 3.653" fill="#040404" fill-rule="evenodd"/><path d="M49.357 6.85C44.516 8.319 38 15.261 38 18.95c0 .693 5.948 1.05 17.5 1.05 11 0 17.5.371 17.5 1 0 .55.442 1 .983 1 1.197 0-2.361-6.595-5.331-9.882-4.381-4.849-12.96-7.191-19.295-5.268m1.004 16.9c.118 1.482-.999 1.827-7.282 2.25-4.668.314-7.575.964-7.834 1.75-.31.942 1.952 1.25 9.172 1.25C54 29 54 29 54 25.5c0-2.765-.397-3.5-1.889-3.5-1.185 0-1.837.652-1.75 1.75M56 25.5C56 29 56 29 66.083 29c7.62 0 9.983-.305 9.671-1.25-.263-.8-3.264-1.43-8.333-1.75-6.759-.427-7.901-.757-7.782-2.25.087-1.098-.565-1.75-1.75-1.75-1.492 0-1.889.735-1.889 3.5m-5.639 6.25c.119 1.493-1.023 1.823-7.782 2.25-5.069.32-8.07.95-8.333 1.75-.312.945 2.051 1.25 9.671 1.25C54 37 54 37 54 33.5c0-2.765-.397-3.5-1.889-3.5-1.185 0-1.837.652-1.75 1.75M56 33.5C56 37 56 37 66.583 37c8.02 0 10.484-.303 10.171-1.25-.268-.812-3.363-1.425-8.833-1.75-7.235-.43-8.401-.747-8.282-2.25.087-1.098-.565-1.75-1.75-1.75-1.492 0-1.889.735-1.889 3.5m-6.639 6.25c.117 1.468-.975 1.83-6.783 2.25-4.388.317-7.077.972-7.346 1.789-.331 1.003 1.645 1.225 8.922 1C53.5 44.5 53.5 44.5 53.813 41.25c.277-2.868.026-3.25-2.139-3.25-1.721 0-2.41.521-2.313 1.75m6.826 1.5c.313 3.25.313 3.25 10.159 3.537 7.678.224 9.752.004 9.421-1-.274-.831-3.052-1.464-7.846-1.787-6.283-.423-7.4-.768-7.282-2.25.097-1.229-.592-1.75-2.313-1.75-2.165 0-2.416.382-2.139 3.25m-29.004 12.5c.318 9.468.656 11.181 2.839 14.362 3.286 4.789 13.642 11.651 18.839 12.482C53 81.256 53 81.256 53 90.628S53 100 44 100c-8.333 0-9 .148-9 2 0 1.933.667 2 20 2s20-.067 20-2c0-1.852-.667-2-9-2-9 0-9 0-9-9.372s0-9.372 4.044-10.019c2.224-.356 5.025-1.201 6.226-1.878 4.081-2.302 13.231-10.02 12.962-10.932-.148-.5.415-1.884 1.25-3.076C83.667 61.602 83.683 43 81.5 43c-1.209 0-1.5 1.559-1.5 8.032 0 8.297-1.245 12.582-4.856 16.718-1.081 1.237-2.433 2.25-3.005 2.25-.572 0-1.399.563-1.839 1.25-.44.688-2.825 2.368-5.3 3.734-8.27 4.565-19.425 2.831-26.21-4.074-.941-.957-2.666-2.41-3.835-3.229-3.127-2.19-4.861-8.171-4.911-16.931-.036-6.396-.322-7.75-1.632-7.75-1.376 0-1.541 1.444-1.229 10.75m19.067-6.5c.169.843-1.443 1.348-4.947 1.55-5.197.301-5.197.301-4.609 5.5.324 2.86 1.399 6.818 2.388 8.795C41.288 67.499 47.37 73 50.035 73 51.773 73 52 72.297 52 66.908c0-4.578-.497-6.724-2-8.635-2.178-2.769-2.599-7.285-.965-10.339.866-1.618.702-1.934-1-1.934-1.119 0-1.923.563-1.785 1.25m14.715.684c1.634 3.054 1.213 7.57-.965 10.339-1.503 1.911-2 4.057-2 8.635 0 7.261 1.138 7.735 7.144 2.978 4.811-3.81 7.385-8.727 8.162-15.586.588-5.199.588-5.199-4.609-5.5-3.504-.202-5.116-.707-4.947-1.55.138-.687-.666-1.25-1.785-1.25-1.702 0-1.866.316-1 1.934" fill="#6f6f6f" fill-rule="evenodd"/></svg>