<svg xmlns="http://www.w3.org/2000/svg" width="108" height="108" viewBox="0 0 108 108" version="1.1"><path d="M 37 21 C 37 21.588, 40.500 22, 45.500 22 C 54 22, 54 22, 54 25.462 C 54 28.925, 54 28.925, 44.750 29.255 C 35.500 29.585, 35.500 29.585, 44.750 29.792 C 54 30, 54 30, 54 33.464 C 54 36.928, 54 36.928, 44.250 37.254 C 34.500 37.581, 34.500 37.581, 44.313 37.791 C 54.127 38, 54.127 38, 53.813 41.250 C 53.500 44.500, 53.500 44.500, 44.500 45.061 C 35.500 45.622, 35.500 45.622, 42.785 45.811 C 49.652 45.989, 50.011 46.111, 49.035 47.934 C 47.414 50.964, 47.816 55.497, 49.948 58.207 C 51.292 59.915, 52.008 62.671, 52.255 67.092 C 52.615 73.500, 52.615 73.500, 52.807 67.250 C 52.976 61.783, 53.245 61, 54.952 61 C 56.643 61, 56.952 61.839, 57.260 67.250 C 57.615 73.500, 57.615 73.500, 57.807 67.158 C 57.948 62.542, 58.545 60.123, 60 58.273 C 62.178 55.504, 62.599 50.988, 60.965 47.934 C 59.986 46.105, 60.354 45.990, 67.715 45.809 C 75.500 45.617, 75.500 45.617, 66 45.059 C 56.500 44.500, 56.500 44.500, 56.189 41.286 C 55.879 38.071, 55.879 38.071, 66.189 37.747 C 76.500 37.422, 76.500 37.422, 66.250 37.211 C 56 37, 56 37, 56 33.536 C 56 30.072, 56 30.072, 65.750 29.746 C 75.500 29.419, 75.500 29.419, 65.750 29.209 C 56 29, 56 29, 56 25.500 C 56 22, 56 22, 64.500 22 C 69.500 22, 73 21.588, 73 21 C 73 20.370, 66.333 20, 55 20 C 43.667 20, 37 20.370, 37 21" stroke="none" fill="#ec1c24" fill-rule="evenodd"/><path d="M 49.243 5.850 C 45.165 7.025, 39.984 12.043, 37.470 17.253 C 36.112 20.070, 35 22.515, 35 22.687 C 35 22.859, 38.375 23, 42.500 23 C 46.833 23, 50 23.422, 50 24 C 50 24.570, 47.041 25, 43.122 25 C 38.229 25, 35.886 25.433, 35 26.500 C 32.606 29.385, 35.520 31, 43.122 31 C 47.041 31, 50 31.430, 50 32 C 50 32.576, 46.874 33, 42.622 33 C 37.285 33, 34.901 33.415, 34 34.500 C 31.606 37.385, 34.520 39, 42.122 39 C 46.041 39, 49 39.430, 49 40 C 49 40.562, 46.207 41, 42.622 41 C 38.173 41, 35.868 41.454, 35 42.500 C 32.890 45.042, 35.535 46.977, 41.372 47.163 C 46.500 47.326, 46.500 47.326, 41 47.913 C 35.500 48.500, 35.500 48.500, 35.854 54.337 C 36.237 60.641, 37.172 63.043, 41.018 67.603 C 44.590 71.837, 48.040 74, 51.223 74 C 54 74, 54 74, 53.807 67.250 C 53.615 60.500, 53.615 60.500, 53.260 66.750 C 52.928 72.595, 52.748 73, 50.487 73 C 47.431 73, 41.434 67.791, 39.082 63.095 C 38.093 61.118, 37.018 57.160, 36.694 54.300 C 36.106 49.101, 36.106 49.101, 41.303 48.800 C 48.153 48.404, 47.962 46.633, 41 46 C 37 45.636, 35.500 45.091, 35.500 44 C 35.500 42.857, 37.167 42.381, 42.500 42 C 47.833 41.619, 49.500 41.143, 49.500 40 C 49.500 38.844, 47.778 38.385, 42 38 C 36.222 37.615, 34.500 37.156, 34.500 36 C 34.500 34.833, 36.278 34.389, 42.500 34 C 48.722 33.611, 50.500 33.167, 50.500 32 C 50.500 30.844, 48.778 30.385, 43 30 C 37.222 29.615, 35.500 29.156, 35.500 28 C 35.500 26.844, 37.222 26.385, 43 26 C 48.778 25.615, 50.500 25.156, 50.500 24 C 50.500 22.834, 48.911 22.435, 43.361 22.208 C 36.222 21.917, 36.222 21.917, 38.198 17.708 C 45.436 2.293, 64.421 2.370, 72.683 17.848 C 74.856 21.918, 74.856 21.918, 67.178 22.209 C 61.149 22.438, 59.500 22.822, 59.500 24 C 59.500 25.167, 61.278 25.611, 67.500 26 C 73.722 26.389, 75.500 26.833, 75.500 28 C 75.500 29.167, 73.722 29.611, 67.500 30 C 61.278 30.389, 59.500 30.833, 59.500 32 C 59.500 33.176, 61.333 33.608, 68 34 C 74.667 34.392, 76.500 34.824, 76.500 36 C 76.500 37.167, 74.722 37.611, 68.500 38 C 62.278 38.389, 60.500 38.833, 60.500 40 C 60.500 41.156, 62.222 41.615, 68 42 C 73.778 42.385, 75.500 42.844, 75.500 44 C 75.500 45.102, 73.970 45.633, 69.731 46 C 62.465 46.630, 61.810 48.402, 68.697 48.800 C 73.894 49.101, 73.894 49.101, 73.306 54.300 C 72.982 57.160, 71.898 61.136, 70.896 63.136 C 68.759 67.405, 62.098 73, 59.154 73 C 57.333 73, 57.054 72.277, 56.740 66.750 C 56.385 60.500, 56.385 60.500, 56.193 67.250 C 56.003 73.899, 56.039 74, 58.596 74 C 61.057 74, 65.672 71.338, 68.986 68.005 C 71.497 65.481, 73.901 58.804, 74.209 53.500 C 74.500 48.500, 74.500 48.500, 69 47.913 C 63.500 47.326, 63.500 47.326, 69.128 47.163 C 75.463 46.980, 78.185 45.133, 76 42.500 C 75.114 41.433, 72.771 41, 67.878 41 C 63.959 41, 61 40.570, 61 40 C 61 39.424, 64.126 39, 68.378 39 C 76.485 39, 79.450 37.452, 77 34.500 C 76.086 33.399, 73.660 33, 67.878 33 C 63.293 33, 60 32.582, 60 32 C 60 31.424, 63.126 31, 67.378 31 C 75.485 31, 78.450 29.452, 76 26.500 C 75.099 25.415, 72.715 25, 67.378 25 C 63.126 25, 60 24.576, 60 24 C 60 23.424, 63.111 23, 67.333 23 C 71.367 23, 74.935 22.732, 75.262 22.404 C 76.069 21.598, 72.425 15.165, 69.156 11.624 C 64.189 6.245, 56.057 3.886, 49.243 5.850 M 26.402 43.394 C 26.077 44.242, 25.968 49.338, 26.161 54.718 C 26.473 63.430, 26.813 64.945, 29.268 68.567 C 32.769 73.735, 42.956 80.809, 48.073 81.628 C 52 82.256, 52 82.256, 52 90.589 C 52 98.922, 52 98.922, 43.250 99.211 C 34.660 99.495, 34.500 99.546, 34.500 102 C 34.500 104.500, 34.500 104.500, 55 104.500 C 75.500 104.500, 75.500 104.500, 75.500 102 C 75.500 99.546, 75.340 99.495, 66.750 99.211 C 58 98.922, 58 98.922, 58 90.461 C 58 82.622, 58.149 82, 60.032 82 C 62.727 82, 69.479 79.145, 68.678 78.344 C 68.332 77.998, 67.453 78.209, 66.725 78.814 C 65.996 79.418, 63.511 80.215, 61.200 80.584 C 57 81.256, 57 81.256, 57 90.628 C 57 100, 57 100, 66 100 C 74.333 100, 75 100.148, 75 102 C 75 103.933, 74.333 104, 55 104 C 35.667 104, 35 103.933, 35 102 C 35 100.148, 35.667 100, 44 100 C 53 100, 53 100, 53 90.628 C 53 81.256, 53 81.256, 48.861 80.594 C 43.664 79.763, 33.308 72.901, 30.022 68.112 C 27.839 64.931, 27.501 63.218, 27.183 53.750 C 26.871 44.444, 27.036 43, 28.412 43 C 29.722 43, 30.008 44.354, 30.044 50.750 C 30.094 59.510, 31.828 65.491, 34.955 67.681 C 36.124 68.500, 37.849 69.953, 38.790 70.910 C 45.575 77.815, 56.730 79.549, 65 74.984 C 67.475 73.618, 69.860 71.938, 70.300 71.250 C 70.740 70.563, 71.567 70, 72.139 70 C 72.711 70, 74.063 68.987, 75.144 67.750 C 78.755 63.614, 80 59.329, 80 51.032 C 80 44.559, 80.291 43, 81.500 43 C 83.747 43, 83.660 61.613, 81.398 64.842 C 80.517 66.100, 80.034 67.367, 80.324 67.658 C 80.615 67.948, 81.577 66.785, 82.462 65.073 C 83.690 62.699, 84.004 59.652, 83.786 52.230 C 83.522 43.262, 83.343 42.500, 81.500 42.500 C 79.691 42.500, 79.444 43.362, 78.915 51.500 C 78.205 62.419, 77.277 64.840, 72.331 68.672 C 59.475 78.632, 52.533 79.192, 41.071 71.190 C 32.640 65.305, 31.738 63.600, 31.074 52.286 C 30.590 44.045, 30.226 42.469, 28.747 42.187 C 27.783 42.003, 26.728 42.546, 26.402 43.394 M 74 74 C 71.525 76.167, 70.077 77.954, 70.781 77.970 C 71.486 77.987, 72.322 77.325, 72.638 76.500 C 72.955 75.675, 73.676 75, 74.240 75 C 75.150 75, 79 71.236, 79 70.347 C 79 69.695, 78.496 70.063, 74 74" stroke="none" fill="#040404" fill-rule="evenodd"/><path d="M 49.357 6.850 C 44.516 8.319, 38 15.261, 38 18.950 C 38 19.643, 43.948 20, 55.500 20 C 66.500 20, 73 20.371, 73 21 C 73 21.550, 73.442 22, 73.983 22 C 75.180 22, 71.622 15.405, 68.652 12.118 C 64.271 7.269, 55.692 4.927, 49.357 6.850 M 50.361 23.750 C 50.479 25.232, 49.362 25.577, 43.079 26 C 38.411 26.314, 35.504 26.964, 35.245 27.750 C 34.935 28.692, 37.197 29, 44.417 29 C 54 29, 54 29, 54 25.500 C 54 22.735, 53.603 22, 52.111 22 C 50.926 22, 50.274 22.652, 50.361 23.750 M 56 25.500 C 56 29, 56 29, 66.083 29 C 73.703 29, 76.066 28.695, 75.754 27.750 C 75.491 26.950, 72.490 26.320, 67.421 26 C 60.662 25.573, 59.520 25.243, 59.639 23.750 C 59.726 22.652, 59.074 22, 57.889 22 C 56.397 22, 56 22.735, 56 25.500 M 50.361 31.750 C 50.480 33.243, 49.338 33.573, 42.579 34 C 37.510 34.320, 34.509 34.950, 34.246 35.750 C 33.934 36.695, 36.297 37, 43.917 37 C 54 37, 54 37, 54 33.500 C 54 30.735, 53.603 30, 52.111 30 C 50.926 30, 50.274 30.652, 50.361 31.750 M 56 33.500 C 56 37, 56 37, 66.583 37 C 74.603 37, 77.067 36.697, 76.754 35.750 C 76.486 34.938, 73.391 34.325, 67.921 34 C 60.686 33.570, 59.520 33.253, 59.639 31.750 C 59.726 30.652, 59.074 30, 57.889 30 C 56.397 30, 56 30.735, 56 33.500 M 49.361 39.750 C 49.478 41.218, 48.386 41.580, 42.578 42 C 38.190 42.317, 35.501 42.972, 35.232 43.789 C 34.901 44.792, 36.877 45.014, 44.154 44.789 C 53.500 44.500, 53.500 44.500, 53.813 41.250 C 54.090 38.382, 53.839 38, 51.674 38 C 49.953 38, 49.264 38.521, 49.361 39.750 M 56.187 41.250 C 56.500 44.500, 56.500 44.500, 66.346 44.787 C 74.024 45.011, 76.098 44.791, 75.767 43.787 C 75.493 42.956, 72.715 42.323, 67.921 42 C 61.638 41.577, 60.521 41.232, 60.639 39.750 C 60.736 38.521, 60.047 38, 58.326 38 C 56.161 38, 55.910 38.382, 56.187 41.250 M 27.183 53.750 C 27.501 63.218, 27.839 64.931, 30.022 68.112 C 33.308 72.901, 43.664 79.763, 48.861 80.594 C 53 81.256, 53 81.256, 53 90.628 C 53 100, 53 100, 44 100 C 35.667 100, 35 100.148, 35 102 C 35 103.933, 35.667 104, 55 104 C 74.333 104, 75 103.933, 75 102 C 75 100.148, 74.333 100, 66 100 C 57 100, 57 100, 57 90.628 C 57 81.256, 57 81.256, 61.044 80.609 C 63.268 80.253, 66.069 79.408, 67.270 78.731 C 71.351 76.429, 80.501 68.711, 80.232 67.799 C 80.084 67.299, 80.647 65.915, 81.482 64.723 C 83.667 61.602, 83.683 43, 81.500 43 C 80.291 43, 80 44.559, 80 51.032 C 80 59.329, 78.755 63.614, 75.144 67.750 C 74.063 68.987, 72.711 70, 72.139 70 C 71.567 70, 70.740 70.563, 70.300 71.250 C 69.860 71.938, 67.475 73.618, 65 74.984 C 56.730 79.549, 45.575 77.815, 38.790 70.910 C 37.849 69.953, 36.124 68.500, 34.955 67.681 C 31.828 65.491, 30.094 59.510, 30.044 50.750 C 30.008 44.354, 29.722 43, 28.412 43 C 27.036 43, 26.871 44.444, 27.183 53.750 M 46.250 47.250 C 46.419 48.093, 44.807 48.598, 41.303 48.800 C 36.106 49.101, 36.106 49.101, 36.694 54.300 C 37.018 57.160, 38.093 61.118, 39.082 63.095 C 41.288 67.499, 47.370 73, 50.035 73 C 51.773 73, 52 72.297, 52 66.908 C 52 62.330, 51.503 60.184, 50 58.273 C 47.822 55.504, 47.401 50.988, 49.035 47.934 C 49.901 46.316, 49.737 46, 48.035 46 C 46.916 46, 46.112 46.563, 46.250 47.250 M 60.965 47.934 C 62.599 50.988, 62.178 55.504, 60 58.273 C 58.497 60.184, 58 62.330, 58 66.908 C 58 74.169, 59.138 74.643, 65.144 69.886 C 69.955 66.076, 72.529 61.159, 73.306 54.300 C 73.894 49.101, 73.894 49.101, 68.697 48.800 C 65.193 48.598, 63.581 48.093, 63.750 47.250 C 63.888 46.563, 63.084 46, 61.965 46 C 60.263 46, 60.099 46.316, 60.965 47.934" stroke="none" fill="#6f6f6f" fill-rule="evenodd"/></svg>