<svg xmlns="http://www.w3.org/2000/svg" viewBox="0 0 200 200"><path fill="#6f6f6f" stroke="#fff" d="M108 155c22-3 38-22 38-43h-13c0 15-17 28-33 28-17 0-33-13-34-28H53c0 21 17 40 38 43v19h17v-19z"/><path fill="#6f6f6f" d="M68 186c7-5 18-6 25-12l11-1 22 13H68z"/><path fill="#6f6f6f" d="m87 180 8-8h32a8 8 0 1 1 0 16H95l-8-8z"/><path fill="#6f6f6f" d="m113 180-8 8H73a8 8 0 1 1 0-16h32l8 8z"/><path fill="#6f6f6f" d="M100 131c-17 0-32-23-32-51 0-29 15-52 32-52s31 23 31 52c0 28-14 51-31 51z" opacity="undefined"/><path fill="#ec1c24" d="M129 128c2-2 2-5 0-6-2-2-4-2-6 0a32 32 0 0 1-47 0c-1-2-4-2-5 0l-2 3 2 3c7 8 17 13 29 13 11 0 22-5 29-13z"/><path fill="none" stroke="#ec1c24" stroke-width="10" d="M100 103v33" opacity="undefined"/><circle cx="100" cy="110.5" r="16" fill="#ec1c24"/><path fill="none" stroke="#ec1c24" stroke-width="10" d="M100 117v33M100 82v33" opacity="undefined"/><circle cx="100" cy="110.5" r="5" fill="#6f6f6f" stroke="#6f6f6f" stroke-width="5"/></svg>